<?xml version="1.0" standalone="no"?>
<!DOCTYPE svg PUBLIC "-//W3C//DTD SVG 20010904//EN"
 "http://www.w3.org/TR/2001/REC-SVG-20010904/DTD/svg10.dtd">
<svg version="1.0" xmlns="http://www.w3.org/2000/svg"
 width="800.000000pt" height="800.000000pt" viewBox="0 0 800.000000 800.000000"
 preserveAspectRatio="xMidYMid meet">

<g transform="translate(0.000000,800.000000) scale(0.100000,-0.100000)"
fill="#000000" stroke="none">
<path d="M3610 7989 c-108 -29 -205 -67 -299 -117 -116 -61 -309 -179 -410
-250 -68 -48 -293 -267 -373 -362 -25 -30 -67 -79 -92 -109 -25 -30 -44 -56
-43 -58 11 -11 66 23 86 52 13 19 28 35 33 35 11 0 68 61 68 73 0 4 6 7 13 7
7 0 20 13 30 29 10 17 32 34 52 41 23 8 41 23 51 43 15 28 18 29 29 14 7 -9
15 -17 20 -17 15 0 51 36 47 48 -5 15 40 16 55 1 7 -7 19 -8 30 -4 10 4 29 9
43 11 14 2 26 8 28 14 6 17 19 11 25 -10 7 -28 37 -26 38 3 1 18 2 18 6 4 4
-16 11 -18 53 -12 29 4 50 3 54 -4 4 -5 13 -8 21 -5 8 4 15 -3 17 -17 2 -16
11 -23 36 -25 17 -2 32 0 32 5 0 5 11 11 25 13 14 3 25 1 25 -3 0 -15 26 -10
46 9 15 14 27 17 56 12 21 -4 38 -3 38 2 0 14 44 27 57 16 7 -5 22 -6 35 -2
43 14 93 10 135 -13 41 -23 43 -23 75 -5 18 10 40 17 48 16 8 -1 23 -2 33 -3
9 0 17 -7 17 -15 0 -30 79 -34 103 -5 23 26 15 36 -17 21 -21 -9 -23 -8 -19 9
3 11 11 18 19 15 7 -3 18 1 24 9 6 8 18 11 26 8 8 -3 14 1 14 11 0 9 6 16 14
16 8 0 17 6 19 13 3 7 6 4 6 -6 1 -14 6 -17 21 -12 27 9 60 -3 60 -21 0 -8 9
-14 21 -14 18 0 20 4 15 28 -6 24 -5 25 5 7 7 -11 13 -21 15 -23 1 -2 11 2 23
10 13 8 19 19 15 30 -4 13 -1 16 10 12 16 -6 20 -17 17 -41 -2 -16 51 -12 57
5 2 6 -1 12 -7 12 -6 0 -11 -5 -11 -11 0 -5 -4 -7 -10 -4 -19 12 -10 22 33 39
53 20 58 20 51 1 -4 -8 -2 -15 4 -15 5 0 12 9 15 20 3 14 10 18 22 14 14 -6
13 -8 -5 -21 -25 -18 -26 -37 -1 -30 11 3 30 -2 42 -11 19 -13 24 -13 48 1 26
15 71 13 71 -3 0 -12 94 13 103 27 4 7 14 13 22 13 7 0 15 6 18 13 3 8 11 4
26 -12 11 -13 24 -21 29 -16 4 4 1 10 -5 12 -24 9 -13 23 17 23 19 0 30 5 30
14 0 7 7 19 15 26 12 10 15 9 15 -7 0 -10 -6 -25 -12 -32 -11 -10 -9 -12 8 -9
11 1 27 -2 35 -8 22 -17 72 -28 63 -13 -5 9 1 10 20 5 23 -6 27 -4 24 11 -2
10 -12 17 -21 17 -14 -2 -16 3 -12 20 4 11 9 29 11 39 3 9 10 17 15 17 6 0 7
5 4 11 -4 6 -13 8 -21 5 -12 -4 -12 -2 -4 14 6 11 15 20 21 20 6 0 7 6 4 13
-4 6 2 1 13 -13 11 -13 18 -28 16 -32 -3 -4 11 -8 31 -8 31 0 36 -3 30 -19 -5
-18 -2 -20 40 -16 25 2 45 0 45 -5 0 -5 16 -17 35 -26 27 -12 33 -20 25 -29
-8 -10 0 -16 35 -26 25 -7 45 -19 45 -26 0 -8 12 -13 28 -13 23 0 48 -20 126
-101 54 -55 100 -98 103 -96 5 6 -111 132 -227 247 -83 83 -229 185 -390 275
-58 32 -112 64 -120 70 -37 28 -205 96 -294 120 -97 25 -102 25 -475 24 -207
0 -392 -5 -411 -10z m1316 -334 c-26 -19 -42 -19 -26 0 7 8 20 15 29 15 13 -1
13 -3 -3 -15z m-56 -36 c0 -10 -40 -23 -47 -16 -3 3 -3 10 0 14 7 11 47 12 47
2z m-200 -59 c0 -5 -8 -10 -17 -10 -15 0 -16 2 -3 10 19 12 20 12 20 0z m-965
-120 c-3 -5 -12 -10 -18 -10 -7 0 -6 4 3 10 19 12 23 12 15 0z"/>
<path d="M4954 7585 c-10 -8 -14 -15 -7 -15 19 0 43 11 43 21 0 13 -14 11 -36
-6z"/>
<path d="M4970 7549 c0 -5 5 -7 10 -4 6 3 10 8 10 11 0 2 -4 4 -10 4 -5 0 -10
-5 -10 -11z"/>
<path d="M4990 7520 c0 -5 9 -10 21 -10 11 0 17 5 14 10 -3 6 -13 10 -21 10
-8 0 -14 -4 -14 -10z"/>
<path d="M4073 7460 c-13 -5 -23 -16 -23 -24 0 -12 -5 -13 -23 -7 -26 10 -53
-1 -44 -17 8 -12 57 -4 77 13 8 6 23 15 33 18 9 4 17 11 17 17 0 12 -7 12 -37
0z"/>
<path d="M4315 7460 c-3 -5 -2 -10 4 -10 5 0 13 5 16 10 3 6 2 10 -4 10 -5 0
-13 -4 -16 -10z"/>
<path d="M4428 7413 c7 -3 16 -2 19 1 4 3 -2 6 -13 5 -11 0 -14 -3 -6 -6z"/>
<path d="M5535 7240 c3 -5 8 -10 11 -10 2 0 4 5 4 10 0 6 -5 10 -11 10 -5 0
-7 -4 -4 -10z"/>
<path d="M5560 7220 c0 -6 7 -13 15 -17 24 -9 27 1 5 15 -13 8 -20 8 -20 2z"/>
<path d="M2337 7032 c-19 -20 -23 -37 -7 -27 10 6 33 45 27 45 -2 0 -11 -8
-20 -18z"/>
<path d="M5840 6861 c0 -5 5 -13 10 -16 6 -3 10 -2 10 4 0 5 -4 13 -10 16 -5
3 -10 2 -10 -4z"/>
<path d="M5910 6691 c0 -5 5 -13 10 -16 6 -3 10 -2 10 4 0 5 -4 13 -10 16 -5
3 -10 2 -10 -4z"/>
<path d="M2337 6333 c-12 -11 -8 -23 8 -23 8 0 15 7 15 15 0 16 -12 20 -23 8z"/>
<path d="M5990 5963 c0 -22 2 -25 10 -13 13 20 13 40 0 40 -5 0 -10 -12 -10
-27z"/>
<path d="M5977 5857 c-3 -8 -1 -20 4 -28 6 -10 9 -7 9 14 0 29 -5 35 -13 14z"/>
<path d="M2690 5599 c-64 -11 -154 -44 -265 -99 -44 -21 -98 -46 -120 -56 -68
-29 -96 -66 -101 -130 -4 -61 -8 -57 76 -72 l55 -10 -57 3 c-63 4 -87 -9 -37
-19 58 -11 88 -7 99 15 7 11 14 18 17 15 4 -3 12 -1 19 5 8 6 20 9 29 6 8 -4
17 -2 20 3 4 6 0 10 -7 10 -7 1 1 7 18 14 18 8 47 13 65 11 19 -2 80 -4 137
-5 57 -1 127 -7 155 -15 29 -7 72 -16 96 -20 24 -4 60 -14 79 -22 28 -12 226
-44 357 -58 38 -4 81 -21 90 -34 3 -6 22 -11 40 -11 26 0 33 4 29 14 -5 13 2
12 51 0 65 -17 78 -12 70 26 -5 24 -2 29 21 37 l28 9 -22 22 c-12 12 -18 22
-13 22 13 0 1 90 -17 125 -8 17 -17 24 -19 18 -3 -7 -10 -13 -17 -13 -9 0 -12
-9 -8 -27 3 -19 1 -25 -6 -18 -5 6 -12 18 -14 29 -3 21 -94 73 -140 80 -3 1
-10 4 -14 9 -4 4 -17 7 -28 7 -12 0 -32 9 -45 19 -14 10 -30 17 -36 15 -7 -3
-18 2 -25 11 -7 8 -24 15 -37 15 -18 0 -24 4 -19 15 4 12 -3 15 -34 15 -21 0
-42 -5 -45 -10 -4 -7 -11 -8 -18 -2 -21 17 -94 24 -117 12 -16 -9 -29 -9 -53
0 -18 6 -48 14 -67 16 -65 9 -83 13 -94 24 -5 5 -12 9 -15 9 -4 -1 -31 -5 -61
-10z m-273 -305 c-3 -3 -12 -4 -19 -1 -8 3 -5 6 6 6 11 1 17 -2 13 -5z m1163
-135 c0 -6 -4 -7 -10 -4 -5 3 -10 11 -10 16 0 6 5 7 10 4 6 -3 10 -11 10 -16z"/>
<path d="M5241 5541 c-8 -5 -12 -18 -8 -30 6 -25 -8 -28 -23 -3 -8 12 -13 13
-16 5 -7 -15 -76 -17 -90 -3 -15 15 -164 26 -164 11 0 -7 -20 -11 -53 -11 -93
0 -270 -29 -342 -55 -38 -14 -84 -30 -102 -36 -17 -5 -42 -21 -55 -34 -13 -14
-37 -32 -54 -41 -17 -8 -37 -25 -43 -37 -7 -13 -22 -27 -34 -32 -18 -8 -21
-17 -19 -45 1 -19 7 -37 13 -41 16 -10 17 -79 1 -79 -10 0 -10 -4 0 -22 11
-21 13 -21 16 -5 2 12 9 16 19 13 8 -3 24 -6 36 -6 12 0 18 -4 12 -8 -13 -9
-18 -72 -5 -72 9 0 15 22 11 43 -1 4 9 2 21 -4 14 -8 18 -14 10 -17 -6 -2 -12
-9 -12 -17 0 -7 -7 -18 -15 -25 -26 -21 -37 -84 -24 -134 12 -47 39 -71 39
-35 0 16 5 20 20 16 12 -3 24 1 31 11 9 15 10 15 5 -1 -9 -29 4 -70 19 -57 17
14 22 5 17 -35 -3 -26 -9 -35 -23 -35 -18 0 -24 11 -19 35 3 18 -17 -9 -24
-31 -8 -26 38 -93 47 -69 4 8 16 15 27 15 11 0 20 7 20 15 0 8 5 15 10 15 6 0
10 -5 10 -12 0 -6 7 -20 17 -30 15 -17 15 -18 -5 -18 -12 0 -22 5 -22 10 0 6
-9 10 -20 10 -11 0 -20 -3 -20 -6 0 -9 53 -54 62 -54 4 0 20 -19 34 -42 22
-35 28 -39 36 -25 11 21 78 24 78 3 0 -7 12 -21 26 -31 22 -14 28 -15 35 -4 6
10 9 11 9 2 0 -7 5 -13 10 -13 6 0 10 7 10 16 0 13 3 14 14 5 11 -10 17 -8 25
6 7 12 13 14 18 7 5 -6 24 -9 43 -7 19 2 52 4 73 3 20 0 37 4 37 10 0 6 5 8
10 5 12 -7 80 15 80 27 0 4 7 5 15 2 11 -4 19 3 26 25 10 28 39 44 39 21 0 -5
5 -10 10 -10 6 0 10 6 10 13 0 7 9 20 20 30 18 15 20 15 20 1 0 -9 6 -14 13
-11 7 2 11 15 9 30 -5 36 19 35 54 0 l26 -28 -6 28 c-5 22 -3 27 13 27 10 0
21 6 24 13 3 7 25 12 62 12 l57 0 -4 45 -5 45 60 3 c88 5 105 14 99 52 -3 22
1 35 13 44 21 15 16 50 -14 87 -17 22 -42 36 -141 83 -46 21 -204 52 -305 60
-200 16 -245 24 -245 46 0 5 20 10 43 10 24 0 66 7 93 15 27 8 62 15 77 15 16
0 54 7 84 16 30 9 63 14 74 11 10 -3 19 -1 19 4 0 5 12 9 28 8 24 0 25 -1 7
-9 -17 -7 -13 -11 28 -29 27 -12 71 -22 98 -23 29 -1 49 -7 49 -14 0 -6 8 -18
17 -25 11 -9 14 -10 10 -2 -13 21 42 28 61 8 16 -16 15 -17 -10 -13 -18 3 -28
1 -28 -7 0 -9 20 -11 75 -7 52 3 75 1 75 -7 0 -6 -18 -11 -45 -11 -26 0 -45
-5 -45 -11 0 -11 36 -9 105 6 17 3 41 8 54 11 20 4 22 7 10 15 -12 8 -12 11 1
22 9 6 15 27 15 45 0 19 5 32 13 32 17 0 15 17 -3 24 -8 3 -15 9 -14 13 6 36
-12 65 -42 68 -13 1 -28 3 -33 4 -6 0 -2 7 8 14 13 9 15 18 9 36 -11 28 -148
77 -238 84 -33 3 -87 16 -120 30 -74 31 -116 40 -134 28z m509 -385 c0 -3 -4
-8 -10 -11 -5 -3 -10 -1 -10 4 0 6 5 11 10 11 6 0 10 -2 10 -4z m-569 -77 c30
-6 65 -12 79 -15 47 -9 81 -27 76 -40 -3 -7 2 -21 11 -29 24 -25 5 -32 -30
-11 -33 18 -167 46 -225 46 -18 0 -43 5 -55 11 -19 11 -17 13 33 29 30 10 56
18 56 19 1 1 26 -4 55 -10z m-141 -149 c0 -5 -9 -10 -21 -10 -11 0 -17 5 -14
10 3 6 13 10 21 10 8 0 14 -4 14 -10z m218 -28 c2 -6 10 -8 18 -5 8 3 17 -3
21 -13 4 -10 2 -19 -5 -22 -7 -2 -10 -7 -7 -12 10 -15 -76 -78 -123 -90 -26
-6 -56 -15 -68 -20 -11 -4 -27 -4 -34 0 -11 7 -6 17 21 47 31 34 46 61 62 114
4 12 17 15 58 13 29 -1 55 -6 57 -12z m-493 -58 c24 -58 20 -63 -29 -40 -36
17 -44 25 -39 41 13 46 48 46 68 -1z m425 -98 c0 -3 -4 -8 -10 -11 -5 -3 -10
-1 -10 4 0 6 5 11 10 11 6 0 10 -2 10 -4z m-137 -34 c3 9 8 10 13 3 5 -5 7 -9
5 -8 -2 2 -10 -2 -16 -7 -15 -12 -48 -2 -39 12 3 5 11 5 19 -2 10 -8 14 -7 18
2z m-613 -23 c0 -5 -4 -9 -10 -9 -5 0 -10 7 -10 16 0 8 5 12 10 9 6 -3 10 -10
10 -16z"/>
<path d="M4865 5530 c3 -5 15 -10 26 -10 10 0 19 5 19 10 0 6 -12 10 -26 10
-14 0 -23 -4 -19 -10z"/>
<path d="M2468 5273 c6 -2 18 -2 25 0 6 3 1 5 -13 5 -14 0 -19 -2 -12 -5z"/>
<path d="M2012 5148 c-17 -17 -15 -25 9 -65 25 -41 34 -35 43 30 7 45 6 47
-16 47 -13 0 -29 -5 -36 -12z"/>
<path d="M2745 5156 c-5 -2 -36 -10 -68 -17 -40 -8 -64 -20 -78 -37 -26 -34
-24 -44 9 -36 24 7 26 6 13 -9 -19 -24 -6 -21 17 3 29 31 182 58 209 37 7 -5
18 -7 25 -5 7 3 22 2 33 -2 15 -6 10 -9 -25 -14 -25 -4 -58 -12 -75 -17 -104
-30 -164 -53 -195 -72 -55 -35 -81 -48 -101 -52 -11 -2 -31 -13 -44 -23 l-25
-20 23 -6 c41 -11 118 -6 147 9 24 12 30 13 30 2 0 -7 -18 -21 -40 -31 -37
-16 -38 -19 -28 -42 10 -20 9 -27 -3 -35 -12 -7 -12 -9 1 -9 8 1 24 7 34 15
30 22 35 18 29 -20 -5 -32 -4 -35 13 -29 11 4 25 12 33 18 12 9 13 7 8 -8 -11
-27 11 -37 40 -19 13 8 23 12 23 8 0 -4 6 -3 13 3 8 7 22 6 46 -4 28 -12 31
-16 21 -29 -11 -13 -10 -14 5 -8 15 5 17 3 11 -12 -6 -17 -5 -18 11 -3 10 9
28 19 41 22 18 6 22 4 22 -14 0 -14 5 -20 13 -17 40 15 57 17 57 8 0 -6 7 -8
15 -5 12 5 14 0 11 -22 -2 -16 -1 -22 1 -13 2 10 12 24 22 33 18 16 19 15 25
-17 4 -23 13 -37 26 -40 13 -3 18 -10 14 -21 -4 -10 -1 -16 7 -16 8 -1 1 -8
-16 -18 l-30 -17 28 -3 c15 -2 27 -9 27 -17 0 -14 37 -31 47 -21 11 11 45 -16
39 -30 -4 -11 0 -14 14 -12 10 2 20 -1 22 -6 3 -11 -51 -28 -69 -21 -7 2 -10
-2 -7 -9 9 -24 -24 -45 -65 -43 -31 2 -37 -1 -33 -13 5 -13 3 -13 -12 -1 -13
11 -20 11 -28 3 -7 -7 -19 -12 -28 -12 -28 0 -84 -32 -70 -40 8 -5 4 -9 -10
-13 -12 -3 -19 -10 -15 -16 3 -6 0 -11 -7 -11 -8 0 -6 -5 5 -11 9 -5 23 -7 29
-2 7 4 41 7 76 8 43 0 66 5 72 15 5 8 21 14 37 15 21 0 29 5 31 23 3 19 30 43
55 48 4 1 10 3 15 4 4 1 12 3 17 4 24 5 48 21 90 62 26 24 51 44 56 44 20 0
127 96 143 128 8 17 19 32 24 32 16 0 45 76 47 127 2 41 -1 54 -14 58 -9 3
-34 42 -55 86 -31 62 -50 88 -85 113 -124 90 -189 106 -471 111 -118 3 -219 3
-225 1z m117 -185 c-8 -51 10 -111 44 -157 20 -25 33 -49 29 -52 -12 -13 -141
29 -175 57 -47 37 -91 103 -79 117 5 6 36 19 69 29 34 10 63 22 66 27 3 5 16
8 27 6 17 -2 21 -9 19 -27z m466 -121 c-2 -8 -10 -15 -18 -15 -8 0 -19 -5 -25
-11 -14 -14 -94 -48 -100 -42 -3 3 3 25 14 49 10 24 22 66 26 93 l7 49 49 -53
c27 -30 48 -61 47 -70z m-354 84 c4 -10 1 -14 -6 -12 -15 5 -23 28 -10 28 5 0
13 -7 16 -16z m177 2 c-7 -8 -21 -12 -31 -9 -31 8 -23 23 11 23 26 0 29 -3 20
-14z m333 -51 c9 -14 15 -25 13 -25 -2 0 -14 11 -27 25 -13 14 -19 25 -13 25
6 0 18 -11 27 -25z m-499 -22 c-9 -36 -9 -37 -42 -28 -21 6 -24 9 -10 12 12 3
16 10 12 24 -5 15 -1 19 20 19 25 0 27 -3 20 -27z m375 -28 c0 -8 -4 -15 -10
-15 -5 0 -7 7 -4 15 4 8 8 15 10 15 2 0 4 -7 4 -15z m200 -58 c0 -2 -9 -12
-19 -21 -19 -17 -19 -17 -14 3 3 12 12 21 19 21 8 0 14 -2 14 -3z m-78 -62 c0
-5 -5 -11 -11 -13 -6 -2 -11 4 -11 13 0 9 5 15 11 13 6 -2 11 -8 11 -13z
m-327 -75 c-3 -5 -10 -10 -16 -10 -5 0 -9 5 -9 10 0 6 7 10 16 10 8 0 12 -4 9
-10z m125 -150 c0 -5 -4 -10 -9 -10 -6 0 -13 5 -16 10 -3 6 1 10 9 10 9 0 16
-4 16 -10z m-140 -150 c0 -5 -8 -10 -17 -10 -15 0 -16 2 -3 10 19 12 20 12 20
0z m-83 -16 c-3 -3 -12 -4 -19 -1 -8 3 -5 6 6 6 11 1 17 -2 13 -5z"/>
<path d="M5998 5123 c-19 -5 -25 -38 -9 -47 4 -3 16 3 26 14 20 22 11 39 -17
33z"/>
<path d="M1969 4922 c-16 -68 -16 -89 9 -287 5 -38 10 -153 11 -254 1 -102 7
-193 12 -202 5 -10 9 -34 9 -53 0 -24 5 -36 14 -36 32 0 35 24 15 140 -23 130
-26 299 -11 530 10 144 9 145 -15 188 -14 23 -26 42 -26 42 -1 0 -9 -30 -18
-68z"/>
<path d="M6028 4948 l-29 -32 8 -125 c13 -205 8 -373 -17 -513 -12 -69 -20
-134 -18 -144 3 -16 6 -15 23 10 22 32 33 98 40 231 6 119 34 344 52 425 26
116 27 139 8 160 -24 27 -32 25 -67 -12z"/>
<path d="M5385 4701 c-3 -5 -1 -12 5 -16 5 -3 10 1 10 9 0 18 -6 21 -15 7z"/>
<path d="M3008 4573 c6 -2 18 -2 25 0 6 3 1 5 -13 5 -14 0 -19 -2 -12 -5z"/>
<path d="M4650 4490 c0 -5 5 -10 10 -10 6 0 10 5 10 10 0 6 -4 10 -10 10 -5 0
-10 -4 -10 -10z"/>
<path d="M4790 4481 c0 -6 4 -13 10 -16 6 -3 7 1 4 9 -7 18 -14 21 -14 7z"/>
<path d="M3318 4369 c-10 -6 -18 -19 -18 -29 0 -27 37 -26 45 1 9 27 -5 41
-27 28z"/>
<path d="M2846 4331 c-3 -5 0 -12 6 -14 7 -3 4 -6 -6 -6 -15 -1 -17 -4 -9 -12
8 -8 17 -8 33 1 12 6 20 13 18 14 -1 1 -10 7 -20 14 -10 8 -19 9 -22 3z"/>
<path d="M2960 4243 c0 -10 6 -13 16 -9 9 3 25 6 35 6 32 0 13 17 -21 18 -21
0 -30 -4 -30 -15z"/>
<path d="M2909 4214 c-11 -14 -10 -15 11 -12 13 1 25 9 28 16 5 17 -23 15 -39
-4z"/>
<path d="M3436 4008 c-16 -51 -15 -63 9 -74 42 -20 59 16 29 61 -18 27 -32 32
-38 13z"/>
<path d="M2040 3879 c0 -7 7 -17 15 -23 14 -10 14 -15 1 -47 -8 -20 -13 -49
-11 -65 2 -16 4 -37 4 -46 1 -10 7 -18 15 -18 10 0 12 11 9 43 -4 34 0 49 21
80 29 42 32 57 14 75 -15 15 -68 16 -68 1z"/>
<path d="M5600 3784 c0 -8 5 -12 10 -9 6 3 10 10 10 16 0 5 -4 9 -10 9 -5 0
-10 -7 -10 -16z"/>
<path d="M2140 3605 c-10 -13 -9 -15 9 -15 12 0 21 6 21 15 0 8 -4 15 -9 15
-5 0 -14 -7 -21 -15z"/>
<path d="M4183 3571 c-46 -12 -122 -62 -116 -78 4 -10 11 -8 30 7 14 11 30 17
36 13 7 -4 23 -7 37 -7 20 -1 25 -5 22 -25 -5 -50 51 -61 107 -22 16 12 34 21
39 21 6 0 13 4 16 9 3 5 -14 6 -38 4 -26 -3 -46 -1 -50 6 -4 6 -1 11 7 11 10
0 14 10 12 33 -2 29 -6 32 -36 34 -19 1 -48 -2 -66 -6z"/>
<path d="M3450 3536 c0 -13 53 -65 61 -60 5 3 9 -1 9 -8 0 -9 13 -15 34 -16
29 -2 37 2 49 27 11 22 12 31 3 35 -6 3 -1 3 12 0 12 -3 22 -1 22 4 0 6 -29
10 -67 9 -38 -1 -80 2 -95 7 -16 4 -28 5 -28 2z"/>
<path d="M3766 3103 c-6 -14 -5 -15 5 -6 7 7 10 15 7 18 -3 3 -9 -2 -12 -12z"/>
<path d="M3795 3083 c-14 -15 -25 -33 -25 -40 0 -17 39 -26 55 -13 8 7 22 10
31 6 8 -3 29 1 46 10 l31 16 -49 24 c-27 13 -52 24 -56 24 -4 0 -19 -12 -33
-27z m80 -12 c-2 -4 -19 -5 -37 -3 -27 4 -29 6 -13 12 22 8 57 1 50 -9z"/>
<path d="M3265 2949 c-14 -12 -32 -19 -39 -16 -8 3 -17 3 -21 -1 -4 -4 -32 -7
-63 -7 -54 0 -57 -2 -60 -26 -2 -15 5 -32 18 -44 11 -10 20 -29 20 -42 0 -15
6 -23 18 -23 10 0 26 -14 36 -31 38 -64 191 -189 214 -175 6 3 12 -2 15 -13 2
-10 14 -20 26 -24 16 -4 21 -1 21 15 0 17 -3 18 -15 8 -12 -10 -15 -9 -15 6 0
10 -9 27 -20 39 -12 12 -21 38 -23 60 -2 33 1 39 26 47 22 8 32 6 48 -8 10 -9
19 -23 19 -31 0 -7 11 -13 25 -13 14 0 33 -9 42 -20 21 -24 36 -25 53 -5 8 9
17 12 24 6 12 -9 83 -26 104 -24 7 0 12 -12 12 -32 0 -26 -5 -35 -22 -41 -19
-6 -19 -7 -5 -16 23 -12 21 -28 -2 -28 -11 0 -23 -5 -27 -11 -4 -7 -21 -9 -40
-6 -46 8 -35 -7 26 -36 34 -16 52 -21 60 -13 7 7 10 5 10 -8 0 -12 5 -16 18
-12 10 4 39 -1 63 -10 48 -17 134 -34 189 -37 66 -3 198 14 216 28 11 8 31 15
46 15 15 0 31 6 35 14 4 7 22 20 39 29 17 9 36 23 43 31 8 9 18 16 24 16 5 0
2 -9 -8 -20 -10 -11 -13 -20 -7 -20 7 0 12 5 12 10 0 6 7 10 15 10 8 0 15 5
15 10 0 19 24 37 42 32 10 -2 18 0 18 6 0 6 10 12 23 14 14 2 22 10 22 23 0
17 7 20 41 21 27 0 48 7 64 22 13 12 34 22 47 22 24 0 32 15 11 22 -7 3 -11
19 -10 40 2 36 2 37 -52 52 -30 9 -61 16 -70 16 -9 0 -16 8 -16 20 0 25 -4 25
-40 -1 l-28 -21 -23 21 c-13 11 -31 21 -41 21 -9 0 -32 13 -50 29 -18 15 -49
31 -68 35 -19 3 -76 19 -125 36 -50 16 -100 30 -112 30 -13 0 -23 4 -23 9 0
19 -34 21 -54 2 -21 -19 -56 -18 -153 4 -27 6 -33 4 -33 -9 0 -10 -8 -16 -21
-16 -18 0 -20 -4 -15 -26 7 -25 5 -26 -24 -22 -17 3 -27 1 -23 -3 4 -4 22 -9
38 -11 22 -2 30 -8 28 -22 -1 -10 7 -28 18 -39 24 -26 24 -40 0 -32 -10 3 -45
6 -77 7 -33 0 -72 6 -89 13 -70 29 -154 55 -179 55 -46 0 -117 22 -123 38 -4
8 -1 23 6 34 7 11 11 21 9 22 -36 22 -58 24 -83 5z m705 -96 c0 -15 1 -15 18
0 23 21 32 21 32 2 0 -20 16 -19 24 0 5 13 9 13 26 3 11 -7 20 -21 20 -30 0
-23 11 -23 43 2 23 18 26 18 31 3 4 -9 1 -20 -6 -25 -7 -4 -9 -8 -5 -8 13 0
-20 -30 -33 -30 -6 0 -13 7 -16 15 -8 19 -33 20 -40 1 -3 -8 -13 -17 -22 -21
-26 -10 -142 -16 -142 -7 0 4 7 18 16 30 9 13 13 26 10 29 -3 4 -6 0 -6 -8 0
-12 -2 -12 -9 0 -12 18 -3 41 16 41 8 0 11 5 8 10 -3 6 3 10 14 10 13 0 21 -7
21 -17z m280 -72 c0 -11 -31 -24 -39 -16 -3 3 1 10 9 15 19 12 30 12 30 1z
m25 -110 c3 -5 7 -23 9 -39 2 -24 -1 -31 -18 -34 -39 -7 -56 2 -56 30 1 26 1
26 15 8 13 -17 15 -17 21 -3 3 10 4 24 0 32 -6 16 19 21 29 6z m61 -37 c-8
-21 -11 -17 -20 21 -7 28 -6 29 10 13 10 -10 14 -23 10 -34z m-158 -21 c13
-38 7 -45 -24 -31 -33 15 -44 0 -16 -22 12 -10 22 -21 22 -24 0 -13 -31 -5
-50 14 -11 11 -24 20 -30 20 -5 0 -10 6 -11 13 0 9 -2 9 -6 -1 -3 -7 3 -23 13
-34 19 -21 19 -21 -1 -13 -27 11 -69 12 -75 3 -3 -4 -17 -9 -30 -10 -19 -2
-24 1 -22 14 1 9 -2 19 -8 23 -5 3 -10 -2 -10 -12 0 -19 -39 -31 -41 -12 -1 5
-2 13 -3 18 -4 34 -20 7 -30 -51 -1 -3 -4 -10 -8 -14 -5 -4 -8 14 -8 39 0 26
5 47 10 47 6 0 5 6 -2 14 -19 21 -28 10 -28 -34 0 -44 -4 -48 -54 -54 -39 -5
-45 0 -21 18 10 7 16 29 16 63 2 51 3 53 34 59 23 4 41 0 59 -11 18 -12 37
-16 62 -12 43 7 64 0 65 -22 0 -13 2 -13 8 2 4 10 9 17 11 16 3 -1 15 1 28 5
13 4 29 3 36 -3 7 -6 16 -8 19 -4 4 3 14 0 23 -8 14 -11 18 -11 30 6 8 10 14
26 14 34 0 22 15 2 28 -36z m-438 -73 c0 -5 -4 -10 -10 -10 -5 0 -10 5 -10 10
0 6 5 10 10 10 6 0 10 -4 10 -10z m230 -120 c0 -5 -4 -10 -10 -10 -5 0 -10 5
-10 10 0 6 5 10 10 10 6 0 10 -4 10 -10z"/>
<path d="M3970 2790 c0 -5 5 -10 10 -10 6 0 10 5 10 10 0 6 -4 10 -10 10 -5 0
-10 -4 -10 -10z"/>
<path d="M3900 2591 c0 -6 5 -13 10 -16 6 -3 10 1 10 9 0 9 -4 16 -10 16 -5 0
-10 -4 -10 -9z"/>
<path d="M3590 2940 c0 -5 5 -10 11 -10 5 0 7 5 4 10 -3 6 -8 10 -11 10 -2 0
-4 -4 -4 -10z"/>
<path d="M3720 2920 c-12 -8 -11 -10 8 -10 12 0 22 5 22 10 0 13 -11 13 -30 0z"/>
<path d="M2349 2833 c-9 -10 -14 -24 -12 -30 3 -7 -9 -21 -27 -30 -24 -14 -30
-23 -27 -42 4 -18 -3 -27 -30 -43 -41 -25 -41 -53 0 -53 26 -1 46 -18 47 -38
0 -17 -31 -18 -55 -3 -30 20 -40 20 -59 0 -23 -23 -20 -37 8 -32 30 6 59 -15
54 -39 -3 -15 -13 -18 -57 -18 -34 0 -56 -5 -58 -12 -3 -8 4 -13 19 -13 13 0
33 -6 43 -14 19 -14 19 -15 1 -35 -11 -12 -25 -21 -32 -21 -22 0 -27 -21 -8
-41 20 -22 12 -36 -25 -41 -28 -4 -52 -35 -35 -46 6 -4 14 -16 18 -27 4 -11 4
-16 0 -12 -4 4 -13 2 -20 -4 -8 -6 -20 -9 -28 -6 -15 6 -36 -11 -36 -28 0 -7
18 -17 39 -24 38 -11 57 -33 45 -52 -3 -5 8 -9 24 -9 30 0 62 -26 62 -51 0
-16 -46 -22 -72 -8 -18 10 -32 -4 -33 -31 0 -11 -9 -14 -32 -12 -26 2 -33 -2
-33 -15 0 -10 4 -24 9 -31 7 -11 12 -10 27 5 11 11 26 18 34 18 8 -1 27 -3 43
-3 17 -1 27 -8 27 -17 0 -8 7 -15 17 -15 12 0 8 -7 -13 -25 l-29 -25 26 0 c14
0 34 -9 45 -21 15 -16 26 -20 54 -15 24 4 43 1 58 -10 26 -18 28 -36 6 -70
l-17 -25 -11 23 c-15 29 -42 34 -67 12 -15 -13 -22 -14 -33 -5 -22 18 -53 4
-59 -25 -7 -40 52 -71 81 -42 15 15 62 -5 62 -27 0 -23 19 -18 30 9 5 13 20
26 36 30 22 6 31 2 49 -21 23 -28 23 -53 -1 -53 -8 0 -11 -6 -8 -15 4 -8 1
-15 -5 -15 -6 0 -11 7 -11 16 0 13 -8 15 -47 10 -27 -4 -65 -7 -85 -7 -37 0
-37 0 -34 -36 4 -39 22 -53 62 -45 16 3 20 9 17 23 -6 23 1 24 36 3 25 -15 31
-15 56 -2 23 12 33 13 64 2 22 -8 40 -9 45 -3 19 18 56 10 68 -15 13 -31 3
-65 -14 -48 -15 15 -51 15 -65 1 -14 -14 -61 -1 -73 21 -11 21 -44 19 -70 -3
-24 -20 -25 -30 -6 -46 15 -12 99 -4 91 9 -8 13 44 -2 55 -16 6 -7 17 -11 24
-8 7 3 21 -4 31 -16 22 -24 17 -25 -21 -6 -15 8 -31 13 -36 10 -4 -3 -16 0
-27 6 -14 7 -22 7 -27 -1 -4 -6 -20 -8 -40 -4 -42 7 -60 -1 -43 -21 7 -9 31
-14 61 -14 42 0 48 -2 39 -14 -13 -16 4 -26 43 -26 13 0 35 -9 49 -20 14 -11
30 -20 36 -20 6 0 11 -13 11 -30 0 -20 5 -30 15 -30 8 0 23 -4 33 -9 9 -5 25
-12 34 -15 10 -3 24 -21 32 -40 8 -20 34 -54 58 -76 38 -34 40 -39 18 -34 -17
3 -13 -1 14 -16 22 -11 42 -24 45 -29 4 -4 20 -15 37 -24 31 -16 158 -152 191
-205 9 -15 41 -54 71 -87 80 -90 95 -106 131 -152 20 -25 45 -45 62 -48 31 -7
56 -39 39 -50 -6 -3 3 -24 21 -48 61 -83 147 -224 169 -275 12 -29 26 -52 29
-52 8 0 38 -60 61 -118 l12 -32 124 0 123 0 6 38 c3 20 10 57 16 82 6 25 13
61 15 80 10 76 36 218 50 270 9 30 24 87 34 125 10 39 25 84 34 100 9 17 16
36 16 43 0 18 84 174 124 231 17 24 47 59 66 77 117 111 141 147 143 209 1 21
5 31 13 28 6 -2 21 11 33 30 12 19 28 38 36 41 8 3 15 12 15 21 0 16 71 54
103 55 9 0 17 7 17 15 0 8 -9 15 -20 15 -43 0 -16 31 68 78 48 27 110 57 137
67 28 9 64 23 80 30 17 8 55 24 85 35 64 25 84 41 100 81 15 36 33 39 24 4 -6
-24 -4 -25 22 -19 16 3 41 7 57 9 15 1 31 3 35 4 5 0 9 21 8 46 0 28 6 51 17
63 9 10 17 24 17 30 0 7 8 12 18 13 10 0 12 3 5 6 -41 16 14 73 70 73 36 0 38
2 35 28 -2 22 -7 26 -26 24 -21 -3 -22 -1 -12 18 7 12 18 19 26 16 8 -3 14 -2
14 2 0 4 13 16 30 27 26 17 27 21 14 36 -14 16 -10 48 7 50 5 1 15 2 22 3 12
1 17 46 17 148 0 37 5 50 20 58 26 14 25 26 0 33 -11 3 -20 9 -20 15 0 14 44
62 58 62 7 0 12 4 12 9 0 5 -11 9 -25 9 -32 0 -37 4 -29 26 4 9 20 20 35 23
38 7 42 15 21 44 -23 33 -24 49 -1 49 23 0 26 35 3 44 -27 10 -31 7 -53 -41
-12 -27 -28 -57 -34 -68 -7 -11 -32 -55 -55 -98 -72 -128 -207 -306 -312 -410
-55 -53 -103 -97 -107 -97 -4 0 -16 -14 -25 -30 -9 -17 -22 -30 -28 -30 -6 0
-8 5 -5 10 3 6 2 10 -4 10 -6 0 -13 -11 -17 -24 -4 -16 -11 -23 -20 -19 -8 3
-14 0 -14 -6 0 -6 -15 -9 -35 -7 -29 2 -36 -2 -44 -23 -18 -46 -48 -72 -86
-74 -23 -1 -34 -6 -30 -14 2 -7 -4 -17 -15 -23 -20 -11 -27 -5 -25 20 1 26
-19 31 -36 8 -9 -11 -27 -21 -42 -20 -25 0 -42 -21 -31 -39 3 -5 -2 -9 -10 -9
-9 0 -16 -4 -16 -10 0 -5 -6 -7 -14 -4 -9 3 -22 -5 -32 -21 -11 -17 -24 -25
-35 -22 -10 3 -31 -8 -51 -26 -18 -17 -36 -32 -40 -32 -3 0 -10 -3 -14 -7 -4
-5 -12 -8 -18 -8 -6 0 -4 5 4 10 8 5 10 10 4 10 -5 0 -19 -6 -29 -14 -10 -7
-27 -11 -37 -8 -10 2 -18 -1 -18 -7 0 -6 -9 -11 -20 -11 -11 0 -20 5 -20 10 0
6 -4 10 -10 10 -5 0 -7 -7 -4 -15 4 -10 -1 -13 -23 -12 -18 1 -27 -3 -25 -10
1 -7 -5 -13 -13 -13 -8 0 -15 8 -15 19 0 17 -10 19 -117 20 -64 1 -120 4 -125
7 -4 3 -8 -2 -8 -10 0 -17 -12 -21 -24 -8 -4 4 -20 7 -34 7 -15 0 -26 5 -25
10 1 7 -25 10 -65 10 -53 0 -79 6 -124 27 -32 15 -58 31 -58 36 0 13 -40 12
-40 -1 0 -7 -7 -3 -15 7 -8 11 -15 16 -15 12 0 -4 -13 2 -28 13 -15 10 -43 21
-62 23 -27 2 -36 8 -38 26 -3 20 -42 53 -42 35 0 -4 -4 -3 -8 2 -4 6 -28 26
-53 45 -26 19 -54 48 -63 63 -9 16 -25 31 -36 34 -11 3 -22 13 -25 23 -8 26
-52 53 -58 37 -3 -6 -6 -2 -6 11 -1 18 -7 22 -30 22 -21 0 -45 14 -84 50 -30
28 -62 50 -71 50 -10 0 -31 13 -49 30 -18 16 -35 30 -38 30 -18 0 -121 154
-212 315 -19 34 -108 222 -158 333 -14 32 -15 33 -30 15z m-9 -148 c0 -8 -6
-15 -14 -15 -17 0 -28 14 -19 24 12 12 33 6 33 -9z m-69 -218 c-10 -9 -11 -8
-5 6 3 10 9 15 12 12 3 -3 0 -11 -7 -18z m-24 -112 c10 -22 9 -25 -7 -25 -23
0 -34 16 -26 35 8 22 19 18 33 -10z m-45 -112 c24 -22 24 -53 -1 -53 -11 0
-23 5 -26 11 -4 6 -13 8 -20 5 -7 -2 -16 2 -19 10 -8 21 -7 26 3 20 5 -3 14 1
21 9 16 19 19 19 42 -2z m106 5 c18 -18 15 -38 -6 -38 -11 0 -24 11 -30 25
-10 22 -9 25 6 25 10 0 23 -5 30 -12z m-22 -133 c17 -26 12 -45 -11 -45 -16 0
-45 38 -45 57 0 22 39 14 56 -12z m76 -2 c19 -17 24 -43 9 -43 -8 0 -41 43
-41 55 0 10 13 5 32 -12z m-115 -115 c19 -24 22 -58 7 -58 -19 0 -65 50 -58
61 8 13 40 11 51 -3z m102 -25 c12 -25 3 -42 -21 -43 -13 0 -40 49 -33 60 12
19 42 10 54 -17z m71 2 c0 -9 -6 -12 -15 -9 -8 4 -15 10 -15 15 0 5 7 9 15 9
8 0 15 -7 15 -15z m0 -107 c33 -36 24 -52 -21 -36 -21 7 -29 16 -29 34 0 30
22 31 50 2z m2750 -33 c0 -8 -7 -15 -15 -15 -16 0 -20 12 -8 23 11 12 23 8 23
-8z m-2699 -98 c9 -7 19 -23 23 -35 7 -22 6 -23 -13 -13 -18 10 -41 40 -41 55
0 9 14 6 31 -7z m2129 -1 c0 -2 -7 -9 -15 -16 -13 -11 -14 -10 -9 4 5 14 24
23 24 12z m-2057 -40 c6 -16 -2 -28 -14 -20 -12 7 -11 34 0 34 5 0 11 -6 14
-14z m1974 -42 c-3 -3 -12 -4 -19 -1 -8 3 -5 6 6 6 11 1 17 -2 13 -5z m-1917
-173 c0 -6 -4 -13 -10 -16 -5 -3 -10 1 -10 9 0 9 5 16 10 16 6 0 10 -4 10 -9z
m-15 -71 c3 -5 -1 -10 -9 -10 -9 0 -16 5 -16 10 0 6 4 10 9 10 6 0 13 -4 16
-10z"/>
<path d="M5750 2674 c0 -4 9 -23 19 -43 11 -20 29 -57 40 -83 19 -45 21 -47
50 -42 23 5 31 3 31 -7 0 -22 -17 -42 -28 -35 -18 11 -24 -13 -12 -50 9 -28
16 -34 31 -29 13 4 19 2 19 -8 0 -8 -9 -17 -21 -20 -16 -4 -19 -11 -14 -26 7
-22 11 -61 20 -193 6 -76 -4 -106 -24 -71 -5 10 -13 14 -17 10 -4 -4 4 -20 18
-35 28 -29 47 -92 29 -92 -6 0 -11 5 -11 10 0 6 -4 10 -10 10 -5 0 -10 -9 -10
-20 0 -11 7 -20 15 -20 15 0 38 -66 29 -82 -3 -5 -13 -3 -22 4 -12 9 -10 3 5
-22 24 -41 44 -228 23 -215 -7 4 -5 -6 4 -23 18 -34 21 -78 7 -86 -5 -3 -11 1
-15 9 -9 25 -28 18 -20 -7 4 -13 10 -25 14 -28 14 -10 30 -49 30 -72 -1 -21
-2 -21 -11 -5 -6 9 -15 15 -20 11 -6 -3 1 -24 16 -49 14 -24 25 -58 25 -76 l0
-32 -26 24 -27 24 13 -25 c7 -14 20 -33 28 -43 21 -24 26 -202 6 -237 -13 -24
-13 -24 -14 -3 0 12 -4 25 -10 28 -17 11 -11 -29 11 -70 16 -32 19 -51 15 -93
-4 -30 -1 -72 5 -95 10 -38 9 -43 -10 -55 -24 -16 -26 -39 -9 -77 10 -22 9
-33 -10 -68 -11 -23 -29 -87 -38 -142 -12 -68 -23 -107 -37 -123 -20 -21 -44
-31 -33 -13 3 5 -1 14 -9 21 -17 14 -20 66 -4 76 6 4 8 17 3 33 -4 14 -8 49
-9 78 -1 41 -6 57 -25 75 -26 25 -38 58 -20 58 5 0 10 6 10 14 0 19 -49 78
-60 71 -11 -7 -43 72 -36 90 3 10 -4 24 -20 38 -15 12 -35 41 -45 65 -22 51
-23 56 -8 46 6 -3 4 7 -5 24 -8 16 -22 32 -31 36 -9 3 -13 11 -10 16 4 6 1 17
-5 25 -7 8 -10 15 -6 15 13 0 -38 81 -65 104 -20 17 -29 34 -29 55 0 16 -6 36
-14 44 -8 8 -19 36 -24 63 -5 27 -13 58 -17 68 -6 14 -5 17 3 12 7 -4 12 -1
12 8 0 23 -11 46 -22 46 -6 0 -20 12 -32 27 -24 30 -41 67 -26 58 5 -3 5 8 -2
25 -10 31 -97 99 -153 120 -32 12 -77 -3 -69 -24 8 -20 -24 -66 -55 -78 -22
-9 -23 -12 -8 -15 13 -4 16 -10 11 -26 -4 -12 -8 -49 -9 -83 -2 -73 -24 -114
-97 -177 -36 -31 -49 -49 -45 -61 4 -9 11 -16 16 -16 14 0 71 57 71 70 0 5 5
10 10 10 17 0 12 -60 -5 -61 -8 -1 -21 -2 -27 -3 -7 0 -14 -10 -16 -22 -3 -24
-56 -58 -77 -50 -8 3 -21 -1 -29 -9 -12 -13 -15 -12 -21 3 -5 14 -10 11 -24
-17 -17 -33 -38 -30 -25 3 3 9 1 23 -6 31 -10 12 -9 15 6 15 21 0 58 56 43 65
-15 10 -56 -27 -70 -62 -7 -18 -25 -45 -41 -60 -30 -29 -36 -49 -15 -56 9 -3
7 -9 -5 -24 -10 -11 -18 -24 -18 -30 0 -6 -6 -15 -13 -22 -8 -6 -14 -34 -14
-73 -1 -35 -8 -76 -16 -92 -9 -16 -14 -46 -12 -70 1 -22 -1 -49 -6 -58 -6 -11
-5 -18 4 -21 8 -3 4 -11 -11 -22 -21 -15 -23 -23 -17 -59 3 -22 7 -56 7 -73 1
-26 4 -30 15 -21 8 6 12 19 11 28 -2 10 5 27 15 38 13 14 18 36 18 78 1 33 5
61 9 64 5 3 11 38 14 78 7 80 19 112 41 112 8 0 15 5 15 10 0 6 -4 10 -10 10
-17 0 -11 27 8 35 16 6 16 7 0 16 -17 9 -16 17 11 87 14 34 35 42 49 16 7 -13
10 -13 20 -2 14 18 81 11 89 -9 3 -8 -4 -32 -15 -54 l-21 -39 22 -5 c18 -5 22
-13 22 -47 0 -32 -4 -42 -18 -44 -24 -3 -23 -2 -31 -46 l-7 -38 56 0 c32 0 55
4 55 11 0 6 9 8 20 4 12 -4 27 -1 35 5 11 9 18 8 32 -5 18 -18 26 -55 12 -55
-5 0 -6 -6 -3 -14 8 -21 -31 -38 -88 -38 -75 1 -94 -9 -95 -52 -1 -37 5 -41
50 -38 9 1 17 -3 17 -8 0 -6 -4 -10 -8 -10 -4 0 -8 -9 -8 -20 0 -11 4 -20 8
-20 21 0 4 -17 -24 -25 -20 -6 -34 -18 -36 -29 -2 -10 -16 -29 -30 -42 l-27
-23 30 -1 c46 -1 58 -13 50 -49 -9 -40 -36 -54 -110 -55 l-60 -1 0 -45 c0 -40
3 -45 23 -48 19 -3 23 -8 18 -25 -3 -12 -6 -30 -6 -39 0 -11 -8 -18 -19 -18
-10 0 -24 -7 -31 -15 -7 -8 -9 -15 -5 -15 5 0 -2 -8 -13 -19 -30 -25 -28 -37
8 -44 25 -6 30 -11 30 -37 0 -27 3 -30 34 -30 31 0 34 3 40 39 6 37 19 50 51
51 15 0 15 -42 -1 -68 -14 -22 -14 -22 36 -22 47 0 63 11 40 25 -18 11 -11 74
10 95 24 24 26 68 4 85 -13 9 -15 20 -10 48 5 29 14 40 39 51 26 10 33 20 35
45 2 29 0 31 -29 31 -28 0 -31 3 -25 23 3 12 6 30 6 39 0 22 32 33 100 33 l55
0 3 41 c3 40 2 42 -32 48 -19 4 -44 2 -56 -4 -11 -5 -29 -14 -39 -19 -25 -13
-31 -5 -31 40 0 43 2 45 51 54 31 6 37 4 42 -14 5 -19 7 -19 41 12 35 32 49
81 29 101 -11 11 -3 80 10 88 23 15 66 8 77 -11 15 -29 12 -69 -7 -79 -13 -8
-15 -19 -10 -61 4 -35 0 -74 -13 -123 -10 -40 -24 -102 -30 -138 -6 -36 -18
-79 -26 -97 -8 -17 -17 -46 -21 -63 -6 -30 -5 -32 15 -21 11 6 25 11 31 11 15
0 14 -73 -1 -88 -15 -15 -50 3 -46 25 2 9 -2 18 -7 20 -12 4 -31 -39 -50 -112
-7 -27 -16 -58 -20 -67 -6 -15 -2 -18 24 -18 29 0 37 10 32 42 -2 17 40 24
129 22 137 -2 130 0 130 -34 0 -28 3 -30 34 -30 32 0 35 3 38 32 2 27 9 34 36
42 39 11 42 9 44 -38 1 -36 2 -36 45 -36 28 0 42 4 38 10 -4 6 -14 9 -22 8 -9
-2 -18 3 -20 10 -3 7 4 12 17 12 12 0 18 4 15 10 -3 5 -1 19 5 30 8 15 17 18
43 13 45 -8 57 -21 57 -59 0 -32 2 -34 35 -34 32 0 35 2 35 29 0 36 5 39 52
34 33 -5 53 -27 49 -55 -1 -5 30 -8 69 -8 55 0 70 3 70 15 0 23 32 34 99 34
61 -1 97 14 85 33 -4 6 -1 14 6 18 10 6 8 13 -8 30 -17 18 -27 21 -61 15 -22
-4 -45 -13 -52 -21 -6 -8 -22 -14 -35 -14 -21 0 -24 5 -24 33 0 45 26 67 86
73 26 2 56 12 66 21 13 12 30 14 71 10 82 -7 107 0 107 32 0 40 -14 53 -55 53
-42 0 -52 -7 -57 -42 l-3 -25 -22 24 c-19 21 -28 23 -70 17 -35 -4 -53 -13
-66 -31 -25 -34 -47 -32 -47 3 0 37 26 72 53 72 12 0 39 14 59 30 32 27 46 31
108 34 39 2 73 6 77 9 3 4 2 21 -4 39 -8 31 -12 33 -52 32 -44 -1 -63 -16 -54
-42 5 -12 2 -12 -14 -4 -11 6 -23 9 -26 5 -13 -13 -37 21 -37 52 0 44 18 56
95 64 35 4 67 10 70 13 11 11 -7 59 -27 69 -22 12 -63 5 -84 -14 -49 -44 -54
-42 -54 13 0 40 30 78 50 65 7 -4 30 -2 51 5 35 12 38 16 35 44 -3 28 -7 31
-40 34 -25 2 -44 -3 -62 -17 -37 -29 -44 -26 -44 18 0 48 22 71 51 53 16 -10
19 -9 19 3 0 9 9 15 24 15 31 0 44 19 36 50 -5 23 -10 25 -50 21 -24 -1 -52
-11 -63 -22 -25 -23 -37 -16 -37 20 0 40 19 58 69 64 56 7 68 19 55 54 -13 37
-58 40 -99 6 l-29 -25 -10 21 c-6 14 -5 30 3 47 11 25 15 26 58 20 26 -3 43
-3 40 1 -4 3 0 14 9 24 31 34 0 78 -47 66 -13 -3 -35 -16 -48 -28 -19 -18 -25
-19 -32 -8 -24 37 -1 73 56 89 54 15 71 38 50 68 -18 25 -50 20 -83 -14 -31
-33 -42 -30 -42 10 0 34 21 63 39 52 5 -3 23 2 40 11 35 20 41 55 15 84 -12
13 -14 26 -8 46 13 45 12 62 -2 67 -16 6 -19 62 -4 71 16 10 -6 49 -30 55 -13
3 -25 11 -28 18 -2 7 2 10 12 6 11 -4 16 -1 16 10 0 9 4 16 9 16 19 0 21 34 3
53 -17 16 -18 24 -9 53 8 26 7 40 -3 60 -11 20 -12 29 -2 45 7 11 10 29 7 40
-9 26 -61 26 -75 -1 -6 -11 -15 -20 -20 -20 -13 0 -13 26 1 51 8 16 13 18 25
8 10 -8 14 -8 14 0 0 6 12 16 26 21 19 7 25 16 22 32 -4 31 -34 34 -69 9 -26
-20 -29 -20 -29 -4 0 10 4 23 8 29 7 11 46 27 66 29 15 0 30 31 23 47 -3 9
-19 20 -37 26 -17 6 -28 8 -26 3 9 -14 -25 -54 -37 -42 -16 16 16 56 55 67 40
12 47 47 11 52 -13 2 -23 8 -23 13 0 6 -12 -3 -26 -20 -14 -17 -30 -29 -35
-25 -15 9 -10 51 7 58 8 3 13 10 9 15 -8 14 13 24 46 23 22 0 27 3 22 16 -13
37 -34 51 -69 45 -41 -7 -43 5 -12 55 21 34 21 35 3 48 -10 8 -26 14 -35 14
-10 0 -30 12 -45 26 -20 19 -30 22 -35 13 -12 -19 -40 -2 -40 24 0 13 -5 28
-12 35 -13 13 -28 16 -28 6z m278 -731 c2 -7 -3 -13 -12 -13 -8 0 -20 -9 -26
-20 -11 -20 -40 -28 -40 -11 0 5 5 22 10 36 8 21 16 26 37 23 14 -2 28 -9 31
-15z m1 -93 c-9 -5 -19 -20 -23 -32 -3 -13 -14 -29 -26 -36 -18 -11 -20 -10
-20 17 0 30 13 46 45 54 33 8 41 7 24 -3z m-10 -124 c8 -10 5 -20 -16 -42
l-28 -29 -3 28 c-3 27 12 57 28 57 4 0 13 -6 19 -14z m44 -122 c-3 -8 -10 -14
-15 -14 -6 0 -22 -12 -37 -27 l-26 -28 -3 27 c-6 48 36 93 51 56 3 -8 6 -5 6
6 1 15 4 16 15 6 8 -6 12 -18 9 -26z m17 -104 c0 -11 -8 -24 -17 -27 -9 -4
-25 -15 -35 -25 -24 -24 -38 -23 -38 5 1 35 25 60 55 55 14 -3 25 -1 25 3 0 5
2 9 5 9 3 0 5 -9 5 -20z m-1077 -384 c8 -24 6 -32 -9 -43 -10 -8 -30 -13 -44
-11 -19 2 -26 10 -28 31 -5 46 4 59 40 55 25 -2 34 -9 41 -32z m155 -3 c3 -30
1 -33 -26 -33 -37 0 -40 3 -34 40 4 27 8 31 31 28 21 -2 27 -9 29 -35z m-128
-143 c11 -11 25 -20 32 -20 6 0 8 -3 5 -7 -4 -3 -2 -11 3 -18 7 -9 -6 -17 -50
-30 -56 -17 -79 -35 -45 -35 8 0 15 -5 15 -11 0 -6 -7 -9 -15 -5 -8 3 -15 1
-15 -4 0 -6 -4 -10 -8 -10 -4 0 -8 12 -7 28 0 19 -7 30 -22 37 -25 11 -32 28
-8 19 12 -5 15 2 15 29 0 29 4 36 23 40 45 9 57 7 77 -13z m145 -25 c0 -43
-14 -52 -61 -41 -19 5 -24 13 -24 40 0 42 6 48 50 44 34 -3 35 -4 35 -43z
m865 -235 c0 -5 -5 -10 -11 -10 -5 0 -7 5 -4 10 3 6 8 10 11 10 2 0 4 -4 4
-10z m-760 -40 c0 -5 -9 -10 -21 -10 -11 0 -17 5 -14 10 3 6 13 10 21 10 8 0
14 -4 14 -10z m770 -73 c0 -19 -27 -53 -36 -45 -9 10 12 58 26 58 5 0 10 -6
10 -13z m-753 -69 l4 -38 -40 0 c-47 0 -53 7 -45 49 6 30 10 32 42 29 32 -3
35 -6 39 -40z m151 -5 c-3 -35 -6 -38 -33 -38 -24 0 -31 5 -33 23 -6 38 5 52
38 52 30 0 31 -2 28 -37z m137 13 c12 -12 12 -15 -1 -20 -26 -10 -34 -7 -34
14 0 23 15 26 35 6z m465 -71 c0 -14 -10 -35 -22 -47 l-23 -23 -3 23 c-4 24
22 72 38 72 6 0 10 -11 10 -25z m-430 -87 l0 -39 -37 3 c-33 3 -38 7 -41 31
-5 38 11 55 48 49 28 -4 30 -7 30 -44z m-315 19 c9 -9 12 -17 7 -17 -6 0 -8
-9 -5 -20 8 -31 -14 -50 -50 -43 -56 10 -66 27 -47 77 8 21 15 25 43 23 19 -2
42 -11 52 -20z m153 -29 c3 -33 0 -37 -27 -43 -40 -9 -51 0 -51 40 0 29 4 34
28 38 42 6 47 3 50 -35z m-600 -140 c-2 -36 -8 -45 -31 -56 -37 -18 -45 -8
-40 45 4 36 9 42 31 46 15 2 31 5 35 6 5 0 7 -18 5 -41z m773 5 c5 -15 9 -36
7 -47 -3 -18 -9 -21 -43 -18 -51 5 -56 10 -48 55 5 34 8 37 40 37 27 0 35 -5
44 -27z m233 -7 c-6 -16 -24 -23 -24 -8 0 10 22 33 27 28 2 -2 1 -11 -3 -20z
m76 13 c0 -15 -33 -69 -42 -69 -13 0 -9 55 4 68 15 15 38 16 38 1z m-750 -11
c0 -10 2 -10 9 0 5 9 24 12 55 10 45 -3 49 -5 60 -39 11 -32 11 -36 -12 -53
-23 -17 -26 -17 -87 0 -60 17 -63 20 -48 36 8 10 13 26 10 38 -3 11 -1 20 4
20 5 0 9 -6 9 -12z m280 -27 c0 -36 -2 -39 -37 -44 -46 -8 -54 -2 -47 31 11
49 13 52 49 52 34 0 35 -1 35 -39z m350 18 c0 -5 -7 -9 -15 -9 -12 0 -13 -5
-4 -27 13 -34 2 -43 -41 -34 -32 6 -35 10 -38 44 l-3 38 34 -6 c21 -4 37 -3
42 4 7 12 25 5 25 -10z m110 -105 c0 -8 -11 -32 -25 -52 l-25 -37 0 30 c0 31
24 75 41 75 5 0 9 -7 9 -16z"/>
<path d="M6028 2474 c13 -9 26 -13 30 -9 8 8 -17 25 -38 25 -9 0 -6 -6 8 -16z"/>
<path d="M6090 2486 c0 -2 7 -6 15 -10 8 -3 15 -1 15 4 0 6 -7 10 -15 10 -8 0
-15 -2 -15 -4z"/>
<path d="M6060 2381 c0 -5 7 -11 15 -15 9 -3 15 0 15 9 0 8 -7 15 -15 15 -8 0
-15 -4 -15 -9z"/>
<path d="M3769 2355 c-68 -11 -93 -21 -84 -35 3 -4 -10 -18 -29 -29 -35 -22
-50 -46 -40 -62 3 -6 -2 -21 -11 -35 -16 -25 -16 -26 7 -19 12 4 28 10 35 12
7 3 10 -3 6 -15 -2 -11 1 -23 8 -28 22 -13 73 -5 87 14 8 10 16 13 20 7 18
-25 51 -35 79 -23 15 6 31 11 36 10 4 -1 7 3 7 9 0 6 7 8 16 5 11 -4 18 1 21
14 4 14 11 19 23 15 18 -6 58 11 82 36 19 18 56 17 121 -6 56 -19 69 -17 73
12 5 29 -32 53 -121 80 -140 42 -242 54 -336 38z"/>
<path d="M6510 2220 c0 -5 6 -10 14 -10 8 0 18 5 21 10 3 6 -3 10 -14 10 -12
0 -21 -4 -21 -10z"/>
<path d="M6280 2191 c0 -15 29 -33 41 -25 9 5 7 11 -6 21 -22 15 -35 17 -35 4z"/>
<path d="M1868 2169 c-30 -17 -22 -49 12 -56 36 -7 48 -21 26 -29 -16 -6 -13
-24 3 -24 8 0 35 90 29 95 -6 5 -47 25 -50 25 -2 0 -11 -5 -20 -11z"/>
<path d="M6598 2153 c7 -3 16 -2 19 1 4 3 -2 6 -13 5 -11 0 -14 -3 -6 -6z"/>
<path d="M1991 2127 c-8 -11 -5 -16 15 -25 14 -7 31 -12 39 -12 8 0 19 -8 24
-17 10 -17 12 -17 26 1 21 27 20 30 -20 49 -43 20 -69 22 -84 4z"/>
<path d="M1775 2070 c-10 -11 -14 -20 -9 -20 5 0 17 9 27 20 9 11 13 20 8 20
-4 0 -16 -9 -26 -20z"/>
<path d="M1848 2061 c-30 -7 -68 -35 -68 -50 0 -6 12 -6 32 0 18 5 34 9 34 9
1 0 9 11 18 25 9 14 15 24 14 24 -2 -1 -15 -4 -30 -8z"/>
<path d="M1882 2043 c-6 -2 -10 -9 -6 -14 8 -14 21 -11 28 6 6 15 1 17 -22 8z"/>
<path d="M6266 2035 c8 -19 66 -47 77 -36 16 16 -9 38 -47 43 -21 2 -32 0 -30
-7z"/>
<path d="M1947 2033 c-13 -12 -7 -19 17 -21 13 -1 27 5 30 13 4 11 -1 15 -18
15 -12 0 -26 -3 -29 -7z"/>
<path d="M6706 2021 c-3 -4 6 -13 20 -20 32 -14 34 -14 34 3 0 21 -43 35 -54
17z"/>
<path d="M6470 2010 c0 -17 41 -33 53 -21 9 9 8 14 -3 21 -20 13 -50 13 -50 0z"/>
<path d="M6220 1970 c0 -13 10 -24 26 -31 31 -11 47 -2 21 12 -9 6 -17 17 -17
24 0 8 -7 15 -15 15 -8 0 -15 -9 -15 -20z"/>
<path d="M6655 1966 c24 -19 58 -21 53 -3 -3 6 -20 13 -39 15 -32 3 -33 3 -14
-12z"/>
<path d="M1791 1951 c-26 -26 -19 -46 9 -31 26 14 34 30 22 42 -7 7 -17 3 -31
-11z"/>
<path d="M6413 1963 c-14 -5 -18 -25 -5 -21 4 1 17 -3 30 -10 22 -13 42 -9 42
7 0 6 -46 33 -53 30 -1 0 -8 -3 -14 -6z"/>
<path d="M7485 1934 c-29 -38 -37 -38 -39 -2 -1 13 -8 24 -18 26 -14 3 -18 -3
-18 -25 0 -15 -4 -35 -10 -43 -7 -12 -10 -12 -16 4 -4 10 -2 28 5 39 12 18 11
19 -10 14 -13 -3 -28 -2 -35 3 -7 7 -20 3 -39 -12 -27 -21 -28 -21 -41 -3 -13
18 -15 18 -44 -10 -26 -25 -28 -31 -16 -44 7 -9 15 -23 19 -32 3 -9 27 -23 54
-32 42 -14 51 -14 71 -1 20 13 22 13 22 -1 0 -19 -62 -47 -84 -39 -22 8 -20
-3 2 -15 28 -15 102 -23 102 -11 0 5 8 10 18 10 10 0 23 5 30 12 15 15 26 4
19 -17 -4 -8 -19 -16 -34 -16 -17 -1 -21 -3 -10 -6 9 -2 17 -8 17 -13 0 -8
-38 -23 -53 -21 -4 1 -15 -6 -24 -14 -8 -9 -22 -14 -29 -11 -9 3 -14 -2 -14
-14 0 -17 -7 -20 -40 -20 -22 0 -40 5 -40 11 0 5 -4 7 -10 4 -6 -4 -7 1 -3 10
4 12 15 16 39 13 18 -2 30 0 28 4 -3 4 -12 8 -20 8 -8 0 -14 4 -14 8 0 11 -46
32 -70 32 -26 0 -26 -20 0 -27 11 -3 20 -9 20 -13 0 -14 -84 1 -124 22 -21 11
-50 21 -65 23 -31 2 -70 21 -94 46 -24 25 -65 34 -99 21 -27 -10 -28 -9 -28
21 0 22 -7 36 -21 46 -19 11 -25 10 -50 -8 -33 -25 -49 -27 -49 -6 0 8 -4 15
-10 15 -13 0 -12 -11 4 -32 7 -10 20 -18 29 -18 8 0 17 -7 21 -15 4 -11 13
-14 30 -9 13 3 27 1 31 -6 4 -6 15 -8 25 -5 13 4 22 -1 30 -14 6 -12 20 -20
33 -20 24 1 87 -21 108 -37 22 -17 75 -36 91 -32 18 4 68 -36 60 -49 -4 -5
-20 -13 -35 -17 l-28 -7 33 -27 c27 -23 40 -27 87 -25 39 2 69 -3 98 -17 24
-11 46 -20 50 -19 24 4 51 -3 69 -16 18 -14 18 -16 1 -29 -16 -12 -15 -14 13
-26 42 -18 41 -44 -2 -35 -39 9 -58 22 -58 41 0 8 6 14 13 14 19 1 -35 39 -63
44 -14 3 -41 2 -60 -3 -31 -7 -55 -3 -110 16 -8 3 -30 6 -48 8 -17 1 -40 9
-50 17 -23 20 -69 31 -77 18 -11 -18 14 -37 58 -44 23 -4 60 -17 82 -30 49
-28 92 -39 100 -26 12 20 135 7 135 -14 0 -17 -113 -40 -136 -28 -11 6 -36 9
-57 8 -20 -1 -37 2 -37 6 0 5 -6 8 -13 8 -8 0 -25 9 -38 20 -17 16 -34 20 -66
17 -23 -2 -45 -6 -48 -9 -4 -3 -24 -4 -45 -1 -26 4 -47 0 -63 -9 -25 -17 -74
-21 -83 -7 -8 13 -71 11 -93 -3 -15 -9 -28 -9 -59 0 -49 15 -146 16 -137 2 3
-5 2 -10 -3 -10 -5 0 -12 9 -15 19 -7 28 -68 44 -85 22 -11 -14 -9 -19 15 -39
22 -18 36 -21 66 -16 27 4 45 1 65 -12 20 -14 44 -18 91 -17 36 1 70 -1 75 -5
20 -12 71 -9 88 6 12 10 31 13 58 9 28 -3 51 1 77 14 50 25 85 27 119 5 15
-11 46 -20 67 -22 22 -2 48 -11 58 -20 15 -13 31 -15 86 -9 52 5 75 3 97 -9
16 -8 33 -13 38 -10 4 3 8 0 8 -5 0 -6 -10 -11 -23 -11 -13 0 -28 -5 -35 -12
-9 -9 -28 -8 -81 1 -39 7 -74 10 -79 7 -5 -3 -32 6 -61 20 -57 26 -91 30 -108
13 -8 -8 -13 -8 -17 0 -11 18 -79 13 -121 -10 -27 -14 -51 -19 -75 -15 -19 3
-52 -1 -73 -9 -38 -13 -71 -10 -95 8 -7 5 -35 7 -63 4 -39 -5 -59 -2 -87 13
-40 22 -69 25 -91 11 -11 -7 -9 -14 13 -36 22 -22 34 -26 64 -22 20 2 57 -3
82 -11 25 -8 71 -15 103 -14 32 1 64 -1 70 -5 7 -5 23 -8 36 -8 15 0 25 -6 27
-18 2 -13 -9 -20 -44 -29 -26 -6 -41 -13 -34 -16 17 -5 15 -22 -3 -22 -8 0
-25 11 -38 25 -21 23 -29 25 -92 22 -45 -3 -78 1 -94 10 -33 17 -61 16 -85 -2
-11 -8 -18 -16 -15 -17 56 -35 103 -50 116 -37 5 5 29 4 58 -4 29 -7 96 -11
160 -9 207 5 235 8 259 31 13 13 35 21 52 21 16 -1 63 -2 104 -3 41 -1 84 -7
95 -13 24 -14 76 -21 91 -12 15 10 85 -8 95 -24 15 -23 -17 -37 -59 -26 -20 6
-69 10 -109 9 -39 -1 -74 3 -78 9 -8 13 -61 13 -85 0 -10 -5 -46 -12 -80 -14
-34 -3 -72 -12 -84 -20 -21 -13 -91 -19 -206 -16 -25 0 -76 1 -115 1 -41 -1
-88 6 -113 16 -31 11 -46 13 -54 5 -6 -6 -17 -8 -24 -5 -29 11 -15 -18 26 -54
22 -19 31 -20 80 -12 36 6 65 5 85 -2 21 -8 50 -8 93 -2 40 7 65 6 69 0 3 -6
30 -7 67 -2 33 4 84 8 112 10 29 1 62 10 75 19 16 10 44 16 85 16 33 0 75 5
91 11 38 13 97 -9 105 -39 5 -16 -2 -22 -33 -31 -27 -8 -45 -9 -58 -1 -29 15
-87 12 -101 -5 -8 -10 -28 -15 -59 -14 -47 2 -146 -25 -156 -41 -3 -5 -14 -1
-24 9 -14 14 -29 17 -62 14 -64 -6 -79 -6 -131 0 -26 3 -62 2 -79 -3 -23 -7
-46 -5 -80 6 -28 10 -56 13 -66 8 -10 -4 -20 -8 -23 -8 -3 -1 -11 -5 -17 -9
-9 -5 -17 0 -24 16 -9 20 -46 47 -64 47 -3 0 -5 -11 -5 -24 0 -25 37 -56 67
-56 10 0 32 -8 48 -17 22 -12 61 -17 152 -19 68 -1 126 2 129 7 7 11 71 12 78
1 3 -5 57 -7 120 -6 87 2 120 6 140 19 22 15 36 16 91 8 52 -8 65 -7 65 4 0 9
14 13 45 13 48 0 71 -22 58 -55 -5 -14 -15 -16 -55 -13 -27 3 -68 1 -91 -4
-23 -5 -71 -11 -106 -13 -35 -2 -75 -9 -88 -16 -18 -10 -34 -10 -66 -2 -40 10
-265 9 -275 -2 -8 -8 -78 -6 -86 2 -16 16 -59 13 -91 -7 -25 -15 -34 -17 -38
-8 -4 11 -6 11 -6 0 -1 -7 7 -15 17 -18 9 -3 29 -12 45 -20 40 -22 64 -24 78
-8 13 16 85 19 94 4 7 -11 44 -8 103 10 31 10 49 11 60 3 10 -5 51 -8 94 -6
43 2 79 -1 82 -6 7 -10 74 -3 91 9 18 13 66 21 86 15 23 -8 25 -47 4 -65 -10
-8 -42 -13 -87 -12 -39 1 -77 -3 -84 -9 -10 -8 -27 -7 -61 5 -64 20 -94 22
-119 8 -12 -6 -44 -9 -75 -6 -34 3 -69 -1 -94 -10 -37 -13 -43 -13 -72 4 -31
18 -36 18 -82 3 -48 -15 -51 -15 -85 7 -29 17 -36 19 -36 6 0 -31 20 -68 34
-63 17 7 135 -20 152 -34 9 -7 14 -4 19 10 7 23 23 25 99 15 29 -4 46 -12 46
-20 0 -8 4 -14 9 -14 5 0 8 7 7 17 -1 22 42 33 121 29 35 -2 66 0 68 5 5 7 20
5 91 -13 32 -8 51 -6 87 6 26 9 54 13 63 9 9 -3 28 -6 43 -7 18 -1 27 -7 29
-21 4 -30 -64 -60 -115 -50 -60 12 -103 13 -103 2 0 -9 -15 -8 -113 11 -36 7
-50 6 -58 -5 -8 -9 -35 -13 -93 -12 -44 1 -95 -1 -112 -5 -21 -5 -40 -3 -55 5
-13 7 -28 12 -32 11 -4 -1 -15 -4 -25 -6 -49 -9 -71 -19 -75 -35 -4 -15 7 -20
59 -31 52 -10 64 -16 64 -32 0 -10 -6 -18 -12 -17 -7 2 -37 -3 -66 -9 -30 -7
-58 -10 -63 -6 -10 6 -11 -11 -3 -42 5 -19 10 -21 42 -13 20 4 40 5 46 1 15
-9 78 -3 93 10 10 8 28 8 66 -1 29 -6 84 -11 122 -9 39 1 93 2 120 0 28 -1 68
-1 90 0 82 3 115 -2 115 -16 0 -8 5 -18 12 -22 7 -5 9 -1 6 12 -3 11 0 24 6
30 20 18 83 26 104 13 19 -12 19 -13 -2 -35 -30 -33 -68 -45 -107 -34 -25 7
-41 5 -76 -11 -31 -14 -54 -18 -72 -14 -33 9 -96 8 -141 -3 -26 -6 -38 -5 -46
6 -13 18 -83 25 -101 11 -8 -7 -26 -8 -45 -4 -48 10 -121 13 -133 4 -5 -3 -25
-10 -42 -14 -58 -12 -38 -69 24 -70 37 0 38 -1 38 -35 0 -31 -3 -35 -27 -38
-14 -2 -31 -9 -37 -16 -15 -18 15 -58 42 -54 31 4 47 -9 47 -38 0 -17 -8 -27
-24 -34 -33 -12 -38 -24 -26 -55 8 -22 15 -26 36 -22 21 4 26 0 31 -24 5 -28
8 -29 61 -29 48 0 53 2 38 13 -12 9 -17 23 -14 42 2 24 10 32 38 42 21 6 39 7
45 2 5 -5 19 -9 30 -9 12 0 30 -9 40 -20 17 -18 16 -19 -11 -26 -16 -3 -38
-12 -49 -19 -12 -7 -30 -15 -40 -18 -11 -2 31 -5 94 -6 99 -1 112 1 101 14 -7
8 -16 12 -21 9 -15 -9 -49 16 -49 36 0 10 -5 22 -12 26 -24 15 38 25 113 18
42 -3 83 -3 91 2 16 10 20 12 87 24 38 6 63 18 82 37 44 45 51 49 83 45 19 -2
44 5 64 18 29 18 31 22 20 40 -11 17 -10 22 2 30 12 7 8 10 -14 10 -32 0 -91
-32 -100 -55 -3 -8 -11 -15 -17 -15 -7 0 -17 -8 -24 -17 -11 -15 -15 -15 -29
-4 -14 12 -19 11 -34 -3 -10 -9 -22 -16 -26 -16 -4 0 -19 -9 -33 -20 -22 -17
-41 -20 -139 -20 -71 0 -115 4 -120 11 -3 6 -17 9 -30 6 -12 -2 -29 0 -36 4
-7 4 -15 3 -19 -2 -7 -13 -67 -26 -91 -21 -13 2 -18 13 -18 37 0 26 5 34 23
38 30 7 211 0 270 -12 39 -7 59 -5 99 10 28 10 55 16 60 13 13 -8 71 17 85 37
7 9 27 22 45 29 76 29 88 35 88 46 0 22 38 44 96 55 88 16 85 14 73 49 -10 27
-15 30 -50 30 -32 0 -47 -7 -76 -35 -20 -19 -43 -35 -51 -35 -8 0 -32 -20 -53
-44 -35 -39 -43 -44 -96 -49 -34 -4 -62 -12 -69 -21 -17 -24 -238 -31 -281 -9
-28 15 -39 15 -97 4 -36 -7 -70 -10 -75 -6 -15 9 -14 75 2 76 6 0 20 2 29 4
22 4 101 -23 110 -38 5 -8 12 -1 20 19 9 24 15 30 27 24 46 -23 103 -32 158
-25 32 4 84 8 115 8 38 0 59 4 62 13 6 15 69 44 96 44 11 0 24 14 34 40 18 44
50 82 69 78 12 -2 87 40 87 49 0 19 -25 43 -44 43 -23 0 -56 -28 -56 -47 0
-17 -45 -63 -62 -63 -14 0 -14 4 3 38 20 37 20 37 0 51 -20 13 -20 14 9 49 30
37 39 59 19 47 -5 -4 -21 -4 -35 -1 -17 5 -24 13 -24 31 0 20 7 26 39 35 22 6
45 9 52 8 7 -2 24 14 37 35 14 20 33 37 42 37 9 0 31 7 47 15 24 12 30 20 26
36 -7 27 -23 32 -56 20 -19 -7 -29 -20 -34 -41 -3 -17 -10 -29 -16 -27 -19 6
-18 22 3 45 25 27 26 48 0 55 -28 7 -26 43 3 51 35 9 39 7 32 -14 -7 -22 10
-27 22 -6 4 7 18 18 31 25 13 7 20 17 16 23 -5 8 -1 9 12 3 10 -4 29 -10 42
-12 20 -5 21 -3 14 18 -9 25 -50 39 -61 21 -3 -5 -21 -17 -40 -27 -34 -17 -34
-17 -28 5 5 20 3 21 -31 16 -42 -7 -59 0 -64 29 -2 16 3 21 29 23 18 2 41 -1
51 -7 15 -8 23 -7 31 3 6 7 32 19 56 26 25 7 47 16 49 19 3 4 -4 17 -14 31
-17 23 -19 23 -44 7 -14 -9 -28 -17 -31 -17 -13 0 -3 23 20 46 14 14 25 28 25
33 0 15 -13 21 -26 10 -15 -13 -44 -5 -44 11 0 6 11 15 25 20 30 12 33 40 4
40 -30 0 -59 18 -59 37 0 13 8 15 49 10 27 -3 52 -3 54 1 2 4 2 1 1 -5 -4 -16
20 -16 63 -1 21 8 33 19 33 30 0 27 -29 34 -62 15 -26 -15 -28 -15 -28 0 0 9
15 29 33 44 24 21 29 30 21 39 -9 9 -17 8 -33 -2 -18 -11 -23 -11 -31 2 -11
18 -4 29 25 40 18 7 25 22 36 74 7 37 16 61 20 55 9 -15 66 -2 73 16 6 17 -9
29 -25 19 -8 -5 -8 -1 0 14 14 26 23 32 80 48 l46 14 -45 -4 c-25 -2 -54 -7
-65 -11 -11 -4 -15 -3 -9 2 22 17 36 54 25 67 -6 7 -7 17 -3 21 4 5 1 5 -5 1
-7 -4 -13 -18 -13 -30 0 -31 -39 -81 -53 -67 -7 7 -1 22 18 47 16 21 24 34 18
31 -20 -12 -25 13 -9 38 20 30 20 35 1 35 -8 0 -24 -19 -36 -42 -19 -38 -23
-40 -29 -23 -4 12 -1 32 7 49 14 27 14 28 -2 22 -14 -5 -16 -2 -11 18 10 39
-9 39 -39 0z m-158 -71 c-3 -10 -5 -4 -5 12 0 17 2 24 5 18 2 -7 2 -21 0 -30z
m160 -20 c-3 -10 -5 -2 -5 17 0 19 2 27 5 18 2 -10 2 -26 0 -35z m-237 17 c0
-5 -4 -10 -10 -10 -5 0 -10 5 -10 10 0 6 5 10 10 10 6 0 10 -4 10 -10z m186
-66 c-12 -31 -25 -3 -13 29 11 29 12 30 15 9 2 -13 1 -30 -2 -38z m115 -6 c-3
-21 -6 -26 -9 -15 -3 17 3 47 11 47 2 0 1 -15 -2 -32z m-39 -43 c-2 -14 -11
-25 -19 -25 -8 0 -12 6 -9 13 3 6 9 20 12 29 9 26 22 13 16 -17z m8 -48 c0
-20 -21 -37 -45 -37 -36 0 -37 13 -3 31 42 21 48 22 48 6z m-75 -72 c-21 -17
-37 -15 -43 3 -2 8 8 12 30 12 31 -1 32 -1 13 -15z m-200 -23 l25 -19 -28 -1
c-32 0 -92 26 -92 40 0 16 67 2 95 -20z m135 -12 c0 -5 -2 -10 -4 -10 -3 0 -8
5 -11 10 -3 6 -1 10 4 10 6 0 11 -4 11 -10z m-362 -254 c15 -7 49 -13 75 -14
26 0 55 -6 64 -14 11 -8 39 -12 86 -11 76 3 146 -21 115 -38 -30 -17 -225 -4
-263 18 -13 7 -55 10 -115 7 -128 -6 -124 -6 -135 -20 -5 -8 -26 -15 -45 -16
-32 -3 -35 0 -38 24 -3 23 2 30 25 39 15 6 38 8 51 6 12 -2 25 0 28 5 3 4 10
6 15 3 5 -4 19 1 31 9 28 20 70 20 106 2z m271 -468 c11 -31 4 -45 -26 -53
-36 -9 -63 3 -74 33 -12 31 1 42 54 42 30 0 39 -5 46 -22z m-119 -13 c0 -8 -4
-15 -10 -15 -5 0 -10 7 -10 15 0 8 5 15 10 15 6 0 10 -7 10 -15z m-172 -253
c7 -9 12 -11 12 -4 0 6 10 11 23 11 12 -1 49 5 81 12 46 9 61 10 64 1 2 -7 8
-12 13 -12 6 0 7 5 4 10 -3 6 0 10 7 10 8 0 14 -9 15 -21 2 -16 -3 -20 -18
-16 -10 3 -17 2 -14 -3 7 -11 -16 -27 -52 -34 -25 -6 -35 -3 -53 16 -15 17
-19 18 -15 6 8 -20 6 -20 -155 -25 -360 -11 -373 -9 -368 35 3 25 6 27 43 26
22 -1 59 -6 83 -12 34 -7 44 -6 50 5 9 14 102 21 139 9 10 -3 28 0 38 8 22 16
83 4 103 -22z"/>
<path d="M1560 1950 c-8 -5 -12 -12 -8 -15 9 -9 48 4 48 16 0 12 -21 11 -40
-1z"/>
<path d="M1840 1944 c0 -9 7 -14 17 -12 25 5 28 28 4 28 -12 0 -21 -6 -21 -16z"/>
<path d="M1680 1940 c0 -5 5 -10 10 -10 6 0 10 5 10 10 0 6 -4 10 -10 10 -5 0
-10 -4 -10 -10z"/>
<path d="M6852 1938 c3 -7 13 -15 24 -17 16 -3 17 -1 5 13 -16 19 -34 21 -29
4z"/>
<path d="M1907 1933 c-10 -10 -8 -33 3 -33 5 0 14 9 20 20 8 15 8 20 -3 20 -8
0 -17 -3 -20 -7z"/>
<path d="M2012 1924 c-15 -11 -22 -25 -22 -50 0 -29 -3 -34 -24 -34 -31 0 -41
-28 -20 -51 10 -11 20 -19 23 -19 11 0 58 102 65 138 6 37 7 37 -22 16z"/>
<path d="M6584 1929 c-3 -6 0 -15 7 -20 10 -6 4 -9 -18 -9 -36 0 -43 -15 -15
-36 27 -21 46 -16 72 18 22 30 22 32 5 45 -23 16 -41 17 -51 2z"/>
<path d="M7575 1930 c-3 -5 -2 -10 4 -10 5 0 13 5 16 10 3 6 2 10 -4 10 -5 0
-13 -4 -16 -10z"/>
<path d="M2077 1922 c-12 -2 -16 -9 -13 -19 3 -8 6 -20 6 -27 0 -6 14 -17 32
-24 27 -10 33 -9 44 6 17 22 17 26 -3 44 -23 19 -43 25 -66 20z"/>
<path d="M6352 1913 c4 -19 58 -37 72 -23 15 15 -13 40 -46 40 -22 0 -29 -4
-26 -17z"/>
<path d="M7140 1921 c0 -5 7 -12 16 -15 22 -9 24 -8 24 9 0 8 -9 15 -20 15
-11 0 -20 -4 -20 -9z"/>
<path d="M6776 1912 c-3 -5 8 -16 23 -25 27 -16 29 -16 35 0 10 25 -44 48 -58
25z"/>
<path d="M7019 1891 c27 -25 51 -27 51 -6 0 8 -6 15 -12 15 -7 0 -24 3 -38 6
l-25 6 24 -21z"/>
<path d="M4700 1887 c0 -8 7 -17 15 -21 8 -3 15 -2 15 3 0 5 -7 14 -15 21 -12
10 -15 10 -15 -3z"/>
<path d="M1592 1878 c-16 -16 -15 -29 5 -43 18 -14 47 -9 37 6 -3 5 -10 7 -15
4 -5 -4 -9 -2 -9 4 0 5 5 13 10 16 6 3 10 10 10 16 0 13 -24 11 -38 -3z"/>
<path d="M1686 1868 c-21 -30 -20 -38 4 -38 18 0 40 26 40 49 0 19 -28 12 -44
-11z"/>
<path d="M6957 1874 c-10 -10 20 -34 42 -34 29 0 26 14 -4 28 -30 14 -30 14
-38 6z"/>
<path d="M1459 1854 c-12 -14 -11 -16 5 -13 11 2 21 10 24 17 5 17 -13 15 -29
-4z"/>
<path d="M1836 1861 c-4 -7 -5 -15 -2 -18 9 -9 19 4 14 18 -4 11 -6 11 -12 0z"/>
<path d="M6230 1860 c0 -6 5 -8 10 -5 6 3 14 -4 18 -16 8 -20 9 -21 16 -4 8
21 8 20 -21 29 -15 5 -23 3 -23 -4z"/>
<path d="M6510 1860 c0 -10 41 -30 63 -30 17 0 -14 27 -40 35 -14 4 -23 2 -23
-5z"/>
<path d="M1772 1848 c-14 -14 -16 -38 -3 -38 5 0 14 7 21 15 17 20 0 41 -18
23z"/>
<path d="M4630 1837 c0 -19 16 -31 24 -18 3 5 -1 14 -9 21 -12 10 -15 10 -15
-3z"/>
<path d="M4675 1840 c3 -5 8 -10 11 -10 2 0 4 5 4 10 0 6 -5 10 -11 10 -5 0
-7 -4 -4 -10z"/>
<path d="M6346 1825 c-5 -14 38 -45 64 -45 11 0 14 37 3 43 -26 15 -61 16 -67
2z"/>
<path d="M6926 1825 c27 -20 51 -20 34 0 -7 8 -22 15 -33 15 -20 0 -20 0 -1
-15z"/>
<path d="M7170 1830 c20 -13 33 -13 25 0 -3 6 -14 10 -23 10 -15 0 -15 -2 -2
-10z"/>
<path d="M1483 1813 c-12 -2 -25 -13 -28 -23 -3 -10 -16 -21 -28 -23 -12 -2
-2 -2 23 0 25 2 55 7 68 10 13 3 22 1 22 -6 0 -6 -8 -11 -18 -11 -10 0 -23 -5
-29 -11 -5 -5 -36 -18 -68 -28 -32 -9 -60 -22 -62 -28 -3 -9 4 -9 28 -3 37 11
159 9 159 -2 0 -13 32 -9 49 6 9 8 36 17 61 20 25 2 46 5 46 5 1 1 4 12 6 26
6 30 -16 34 -34 6 -6 -11 -18 -17 -26 -13 -9 3 -13 1 -9 -5 5 -7 -7 -10 -33
-9 -31 1 -40 5 -40 19 0 14 -55 81 -63 76 -1 -1 -12 -4 -24 -6z"/>
<path d="M7096 1810 c14 -14 74 -24 74 -12 0 5 -14 12 -31 16 -45 9 -55 8 -43
-4z"/>
<path d="M6490 1794 c-13 -14 -11 -19 9 -35 24 -20 41 -23 79 -13 28 8 28 18
-2 37 -39 26 -71 30 -86 11z"/>
<path d="M6636 1787 c-18 -19 -18 -20 2 -40 15 -15 37 -21 79 -24 31 -2 62 -8
67 -13 6 -6 20 -10 32 -10 13 0 26 -5 30 -11 5 -8 10 -6 16 5 14 25 -5 42 -60
56 -26 6 -56 17 -67 24 -11 7 -33 17 -50 23 -25 8 -33 6 -49 -10z"/>
<path d="M2043 1782 c-10 -6 -9 -13 3 -31 12 -16 24 -21 47 -19 41 4 43 19 6
41 -34 19 -39 20 -56 9z"/>
<path d="M7048 1782 c-22 -4 -23 -28 -2 -36 26 -10 51 -7 63 8 9 11 6 16 -16
23 -15 5 -36 7 -45 5z"/>
<path d="M1208 1763 c7 -3 16 -2 19 1 4 3 -2 6 -13 5 -11 0 -14 -3 -6 -6z"/>
<path d="M6230 1757 c0 -18 34 -49 43 -40 11 10 8 20 -9 37 -19 20 -34 21 -34
3z"/>
<path d="M7220 1763 c1 -19 18 -32 53 -38 39 -8 52 7 20 23 -28 14 -73 23 -73
15z"/>
<path d="M1353 1734 c-15 -14 -21 -23 -13 -20 8 3 23 9 33 12 9 4 17 13 17 20
0 19 -5 18 -37 -12z"/>
<path d="M1760 1735 c-7 -9 -11 -18 -8 -20 3 -3 11 1 18 10 7 9 11 18 8 20 -3
3 -11 -1 -18 -10z"/>
<path d="M5880 1735 c7 -9 15 -13 17 -11 7 7 -7 26 -19 26 -6 0 -6 -6 2 -15z"/>
<path d="M1918 1732 c-27 -2 -35 -7 -31 -18 3 -8 0 -14 -7 -14 -6 0 -8 -4 -5
-10 12 -19 69 -11 83 11 17 27 7 35 -40 31z"/>
<path d="M6340 1711 c0 -19 52 -51 87 -51 10 -1 36 -7 57 -15 32 -11 48 -12
83 -2 34 9 50 8 80 -3 35 -13 74 -21 181 -36 26 -4 42 -3 42 4 0 5 11 13 25
16 51 13 23 26 -57 28 -46 0 -90 1 -98 0 -8 0 -20 8 -28 19 -14 21 -47 24 -85
10 -17 -7 -33 -5 -53 6 -34 18 -83 19 -112 4 -17 -9 -25 -7 -46 14 -30 30 -76
34 -76 6z"/>
<path d="M7712 1713 c-18 -7 -5 -21 35 -38 45 -19 43 -19 43 9 0 31 -38 45
-78 29z"/>
<path d="M1072 1688 c5 -15 37 -18 41 -3 1 6 -9 12 -22 13 -16 3 -22 -1 -19
-10z"/>
<path d="M6940 1691 c0 -5 5 -13 10 -16 6 -3 10 -2 10 4 0 5 -4 13 -10 16 -5
3 -10 2 -10 -4z"/>
<path d="M7855 1679 c-9 -14 14 -39 36 -39 26 0 24 15 -5 34 -16 10 -27 12
-31 5z"/>
<path d="M2118 1668 c-4 -12 11 -63 26 -87 5 -8 4 -16 -5 -22 -9 -6 2 -8 31
-8 25 0 39 3 33 6 -7 2 -13 18 -13 34 0 32 -16 69 -34 81 -17 11 -34 9 -38 -4z"/>
<path d="M6985 1670 c3 -5 11 -10 16 -10 6 0 7 5 4 10 -3 6 -11 10 -16 10 -6
0 -7 -4 -4 -10z"/>
<path d="M1218 1663 c7 -3 16 -2 19 1 4 3 -2 6 -13 5 -11 0 -14 -3 -6 -6z"/>
<path d="M1484 1649 c-4 -7 -25 -9 -58 -5 -29 4 -64 2 -79 -3 -27 -11 -37 -36
-15 -43 8 -3 8 -9 1 -22 -5 -10 -12 -17 -14 -15 -13 7 -78 -14 -83 -28 -8 -19
-9 -17 33 -32 45 -15 73 -14 95 2 16 12 17 16 5 34 -18 30 2 51 54 55 34 3 44
8 60 36 17 29 18 48 1 21z"/>
<path d="M1678 1649 c-20 -11 -24 -34 -6 -45 12 -8 38 21 38 43 0 15 -9 16
-32 2z"/>
<path d="M2005 1650 c-8 -12 16 -49 36 -55 9 -3 19 -15 22 -25 4 -17 0 -20
-24 -20 -16 0 -29 -4 -29 -10 0 -13 77 -13 85 0 4 6 3 19 -1 28 -4 9 -8 22 -8
27 -4 41 -64 82 -81 55z"/>
<path d="M6250 1642 c0 -18 18 -42 31 -42 3 0 4 11 2 24 -6 29 -33 44 -33 18z"/>
<path d="M6940 1637 c0 -9 16 -24 36 -33 33 -16 36 -16 52 0 15 15 15 18 2 26
-8 5 -25 10 -37 10 -12 0 -28 3 -37 6 -10 4 -16 1 -16 -9z"/>
<path d="M933 1633 c-7 -2 -13 -9 -13 -14 0 -14 34 -11 66 6 l29 15 -35 -1
c-19 0 -41 -3 -47 -6z"/>
<path d="M1065 1630 c-3 -5 0 -10 7 -10 7 0 23 -3 36 -6 16 -5 22 -2 22 10 0
18 -54 23 -65 6z"/>
<path d="M1198 1616 c-43 -32 1 -50 47 -20 14 9 22 20 19 25 -8 13 -46 10 -66
-5z"/>
<path d="M1545 1605 c-14 -13 -25 -21 -25 -17 0 4 -5 -1 -11 -11 -8 -13 -14
-15 -29 -7 -14 8 -24 3 -49 -22 -23 -23 -28 -34 -19 -40 21 -13 31 -9 68 22
21 18 41 28 50 24 28 -12 59 -4 84 21 14 14 30 25 35 25 6 0 8 7 5 15 -10 25
-81 19 -109 -10z"/>
<path d="M1736 1614 c-9 -24 -7 -28 9 -14 17 14 20 30 6 30 -5 0 -12 -7 -15
-16z"/>
<path d="M1843 1623 c-7 -2 -13 -11 -13 -18 0 -21 54 -14 58 8 3 17 -17 22
-45 10z"/>
<path d="M4090 1620 c0 -5 5 -10 10 -10 6 0 10 5 10 10 0 6 -4 10 -10 10 -5 0
-10 -4 -10 -10z"/>
<path d="M7582 1614 c-36 -25 -27 -36 26 -28 59 8 66 12 51 30 -15 18 -49 18
-77 -2z"/>
<path d="M6350 1586 c0 -27 34 -42 87 -37 17 1 45 -5 63 -14 20 -10 54 -16 93
-15 34 0 78 1 97 1 19 0 42 2 52 5 9 3 19 0 23 -6 9 -15 113 -10 126 7 6 7 20
13 30 13 11 0 19 7 19 15 0 10 -9 15 -27 14 -16 -1 -32 0 -38 1 -15 6 -75 -10
-75 -20 0 -21 -42 -17 -68 7 -24 22 -33 24 -79 19 -29 -3 -73 -2 -97 4 -47 10
-109 4 -100 -11 10 -16 -3 -9 -30 16 -36 33 -76 34 -76 1z"/>
<path d="M810 1580 c-24 -15 -7 -19 20 -5 15 8 19 14 10 14 -8 1 -22 -3 -30
-9z"/>
<path d="M1010 1581 c0 -9 34 -21 63 -21 9 0 17 7 17 15 0 11 -11 15 -40 15
-22 0 -40 -4 -40 -9z"/>
<path d="M2478 1568 c9 -9 15 -9 24 0 9 9 7 12 -12 12 -19 0 -21 -3 -12 -12z"/>
<path d="M7887 1573 c-13 -12 -7 -42 11 -52 16 -9 80 -6 90 4 3 3 0 16 -6 30
-9 20 -19 25 -50 25 -21 0 -42 -3 -45 -7z"/>
<path d="M556 1562 c-8 -14 20 -34 41 -30 28 5 22 33 -9 36 -14 2 -29 -1 -32
-6z"/>
<path d="M1836 1558 c-3 -7 -7 -26 -11 -42 -7 -33 -39 -79 -49 -69 -3 3 -6 -8
-6 -26 0 -24 5 -34 20 -38 11 -3 20 -7 20 -9 0 -2 -5 -27 -11 -55 -10 -47 -9
-54 6 -65 15 -11 17 -23 12 -64 -7 -56 0 -91 14 -69 4 8 11 10 15 6 11 -10 6
-77 -6 -92 -14 -17 -15 -76 -2 -177 10 -77 9 -93 -7 -140 -14 -40 -21 -49 -26
-36 -4 10 -11 15 -16 12 -13 -8 -11 -44 2 -44 14 0 9 -24 -24 -144 -14 -49
-34 -98 -46 -109 -21 -21 -21 -21 -22 -2 0 12 -6 4 -15 -19 -11 -30 -11 -42
-3 -47 8 -5 5 -18 -12 -45 -13 -22 -22 -50 -20 -65 1 -15 -5 -41 -13 -58 -20
-37 -20 -41 -2 -41 25 0 29 -20 9 -43 -11 -12 -20 -32 -21 -44 -1 -20 4 -23
38 -23 21 0 41 4 44 9 3 4 20 11 38 15 25 5 29 9 19 16 -13 7 -13 11 -1 25 12
15 12 17 -5 15 -26 -3 -65 10 -65 21 0 5 7 9 15 9 8 0 15 5 15 10 0 35 92 69
102 38 3 -7 11 -9 24 -3 10 4 23 7 27 6 4 -1 17 5 28 13 36 25 91 0 82 -37
-12 -47 -14 -47 -128 -32 -41 5 -67 -16 -68 -57 -2 -33 -2 -33 43 -31 27 1 49
8 56 18 10 14 12 14 18 0 3 -8 14 -15 25 -15 11 0 24 -8 30 -17 8 -15 17 -16
81 -7 39 5 74 6 77 1 7 -11 155 -7 171 6 8 6 12 6 12 -2 0 -6 11 -11 25 -11
23 0 25 4 25 45 0 25 4 45 9 45 19 0 41 -32 41 -61 0 -29 2 -30 37 -27 26 2
37 8 39 21 5 39 14 47 49 47 33 0 35 -2 35 -35 0 -33 2 -35 35 -35 30 0 35 4
41 28 11 52 12 53 51 50 37 -3 38 -4 37 -41 l0 -37 42 0 c42 0 43 1 46 38 3
36 4 37 43 37 l40 0 -3 -38 -4 -37 41 0 c40 0 41 1 41 33 0 42 8 53 47 60 29
6 33 4 39 -18 3 -14 4 -37 2 -50 -5 -24 -3 -25 41 -25 40 1 44 2 29 14 -20 15
-24 46 -7 63 15 15 4 43 -31 83 -24 27 -32 31 -44 21 -8 -7 -27 -11 -43 -9
-24 2 -28 8 -31 36 -4 38 12 62 39 62 13 0 19 7 19 21 0 32 -19 59 -42 59 -20
0 -20 4 -14 63 5 51 2 70 -13 100 -10 21 -22 64 -26 97 -7 64 -8 64 -72 61
-32 -2 -33 -1 -33 39 0 32 4 40 18 40 11 0 24 -10 30 -22 l11 -23 0 23 c1 15
-22 48 -66 96 -112 121 -161 181 -184 227 -12 24 -31 53 -41 65 -10 11 -21 40
-24 65 -8 70 -9 70 -49 53 -33 -13 -42 -13 -115 7 -44 11 -84 27 -91 35 -6 8
-18 14 -26 14 -22 0 -113 49 -119 65 -3 8 -22 19 -42 25 -102 31 -173 84 -199
145 -17 42 -20 45 -56 45 -21 0 -39 -5 -41 -12z m71 -94 c3 -8 0 -27 -7 -42
l-12 -27 -13 25 c-9 17 -10 30 -4 42 12 22 28 23 36 2z m-86 -47 c-8 -8 -11
-3 -11 19 1 25 2 27 11 11 8 -14 8 -22 0 -30z m25 -63 c4 -14 2 -30 -5 -37 -8
-8 -11 -6 -11 10 0 12 -3 28 -6 37 -3 9 -1 16 5 16 6 0 14 -12 17 -26z m49
-150 c-20 -31 -35 -23 -35 20 0 47 21 64 38 30 12 -22 11 -29 -3 -50z m86 43
c-10 -9 -11 -8 -5 6 3 10 9 15 12 12 3 -3 0 -11 -7 -18z m-61 -148 c-7 -16
-16 -29 -21 -29 -15 0 -10 49 9 78 l17 26 3 -23 c2 -12 -2 -36 -8 -52z m-51
-162 c1 -5 -3 -5 -9 -2 -5 3 -10 16 -9 28 0 21 1 21 9 2 5 -11 9 -24 9 -28z
m-2 -49 c-3 -7 -5 -2 -5 12 0 14 2 19 5 13 2 -7 2 -19 0 -25z m883 -32 c0 -22
-6 -36 -16 -40 -28 -11 -34 -6 -34 28 0 33 6 39 43 45 4 0 7 -14 7 -33z m-874
-42 c-4 -9 -9 -15 -11 -12 -3 3 -3 13 1 22 4 9 9 15 11 12 3 -3 3 -13 -1 -22z
m727 2 c7 -18 -1 -26 -27 -26 -17 0 -18 2 -6 10 12 8 12 10 -5 11 l-20 0 20 9
c28 12 32 12 38 -4z m-273 -92 c0 -13 -4 -24 -10 -24 -5 0 -10 14 -10 31 0 17
4 28 10 24 6 -3 10 -17 10 -31z m-103 4 c-3 -8 -6 -5 -6 6 -1 11 2 17 5 13 3
-3 4 -12 1 -19z m530 -36 c3 -23 -1 -33 -17 -42 -32 -17 -52 -5 -48 27 3 27
33 55 52 49 6 -1 11 -16 13 -34z m-157 -27 c0 -33 -2 -35 -34 -35 -31 0 -33 2
-28 28 6 30 18 42 45 42 13 0 17 -8 17 -35z m-160 -3 c0 -37 -8 -44 -34 -30
-29 15 -29 14 -14 37 19 32 48 27 48 -7z m-220 -79 c0 -27 -3 -34 -11 -26 -7
7 -9 23 -5 37 9 37 16 32 16 -11z m108 -6 c3 -38 -2 -43 -27 -28 -9 6 -11 18
-6 40 9 42 29 34 33 -12z m-298 13 c0 -5 -4 -10 -9 -10 -6 0 -13 5 -16 10 -3
6 1 10 9 10 9 0 16 -4 16 -10z m868 -42 c-3 -40 -5 -43 -33 -43 -26 0 -30 4
-33 30 -4 31 18 55 50 55 16 0 19 -7 16 -42z m-143 -18 c3 -40 -5 -50 -42 -50
-34 0 -34 1 -28 33 10 45 14 49 43 45 19 -2 26 -9 27 -28z m-325 -25 c0 -39 0
-39 -33 -24 -33 15 -26 59 9 59 21 0 24 -5 24 -35z m160 6 c0 -29 -14 -41 -51
-41 -14 0 -19 7 -19 28 0 36 6 42 42 42 24 0 28 -4 28 -29z m-558 -51 c-4 -27
-8 -30 -38 -30 -36 0 -37 2 -28 38 5 17 14 22 38 22 30 0 32 -2 28 -30z m282
4 c20 -20 22 -84 2 -84 -7 0 -20 7 -27 16 -10 12 -23 14 -50 10 -21 -3 -40 -2
-43 2 -3 5 -19 7 -36 4 -36 -5 -40 12 -7 39 26 22 87 26 87 5 0 -7 6 -19 14
-25 11 -9 15 -7 19 9 3 11 0 20 -6 21 -10 0 2 7 30 18 1 1 9 -6 17 -15z m-444
-28 c0 -15 -18 -31 -26 -23 -7 7 7 37 17 37 5 0 9 -6 9 -14z m1038 -58 c-3
-42 -4 -43 -40 -46 -37 -3 -38 -3 -38 32 0 38 18 55 58 56 21 0 23 -4 20 -42z
m-163 -18 c0 -33 -2 -35 -37 -38 -37 -3 -38 -3 -38 32 0 28 4 35 23 39 43 9
52 3 52 -33z m-325 -3 c0 -41 -7 -49 -31 -36 -12 6 -19 21 -19 39 0 25 4 30
25 30 22 0 25 -4 25 -33z m158 -4 c-3 -36 -5 -38 -40 -41 -41 -3 -46 5 -28 52
7 20 16 26 40 26 30 0 31 -2 28 -37z m-570 -40 c-3 -37 -4 -38 -45 -41 -47 -3
-48 -1 -32 47 9 27 16 31 46 31 33 0 34 -1 31 -37z m-158 -4 c0 -37 -19 -59
-50 -59 -32 0 -36 9 -19 43 22 42 69 53 69 16z m314 -26 c-7 -22 -17 -29 -43
-31 -31 -3 -33 -2 -27 20 3 13 6 28 6 35 0 14 51 22 64 11 6 -5 6 -18 0 -35z
m150 22 c8 -9 13 -27 11 -43 -2 -15 -4 -33 -4 -39 -1 -7 -7 -13 -14 -13 -21 0
-45 32 -50 65 l-4 30 -2 -31 c-1 -29 -18 -43 -53 -44 -13 0 -9 65 4 78 17 17
94 15 112 -3z m592 -70 c3 -8 2 -27 -3 -42 -8 -23 -15 -28 -44 -28 -32 0 -34
2 -35 35 0 37 12 48 54 49 12 1 25 -6 28 -14z m-498 -38 c3 -35 1 -38 -20 -35
-19 2 -24 10 -26 41 -3 35 -1 38 20 35 19 -2 24 -10 26 -41z m332 19 c0 -45
-10 -56 -51 -56 -41 0 -46 8 -33 58 5 18 13 22 45 22 35 0 39 -3 39 -24z
m-170 -20 c0 -37 -12 -46 -59 -46 -25 0 -28 3 -23 28 7 39 20 52 53 52 26 0
29 -3 29 -34z m-426 -53 c-11 -50 -13 -53 -49 -53 -29 0 -35 4 -35 21 0 39 19
59 56 59 32 0 34 -2 28 -27z m153 9 c14 -9 17 -28 15 -80 -2 -29 -5 -33 -23
-27 -14 5 -19 3 -15 -3 3 -6 2 -13 -4 -17 -5 -3 -10 3 -10 13 0 29 -24 46 -49
33 -30 -17 -32 -14 -29 32 3 40 5 42 35 43 18 0 36 3 39 7 9 9 26 9 41 -1z"/>
<path d="M875 1538 c-26 -20 -29 -20 -40 -5 -15 21 -34 21 -64 0 l-24 -16 28
-14 c20 -11 30 -12 38 -4 6 6 28 11 48 11 26 0 47 8 66 25 l28 24 -26 1 c-15
0 -39 -10 -54 -22z"/>
<path d="M1141 1541 c-17 -11 -6 -31 19 -31 29 0 50 11 50 26 0 16 -47 19 -69
5z"/>
<path d="M4876 1535 c-11 -8 -17 -17 -14 -21 8 -8 48 14 48 26 0 14 -12 12
-34 -5z"/>
<path d="M6250 1533 c0 -5 6 -18 14 -29 17 -22 35 -11 20 13 -12 19 -34 29
-34 16z"/>
<path d="M7613 1522 c-8 -19 6 -29 48 -37 39 -7 53 2 43 28 -7 20 -84 28 -91
9z"/>
<path d="M441 1518 c-23 -8 -23 -10 -9 -25 17 -16 68 -11 68 7 0 17 -34 28
-59 18z"/>
<path d="M1667 1516 c-4 -10 -5 -21 -2 -24 9 -9 17 6 13 25 -3 17 -4 17 -11
-1z"/>
<path d="M995 1500 c-16 -17 -16 -20 -2 -20 14 0 47 25 47 36 0 12 -29 2 -45
-16z"/>
<path d="M1720 1500 c-9 -16 -8 -20 5 -20 8 0 15 9 15 20 0 11 -2 20 -5 20 -2
0 -9 -9 -15 -20z"/>
<path d="M530 1501 c-24 -7 -24 -7 9 -14 34 -7 51 -3 51 14 0 10 -23 10 -60 0z"/>
<path d="M1096 1491 c5 -5 23 -13 39 -17 27 -7 29 -6 16 9 -7 10 -25 17 -39
17 -16 0 -22 -4 -16 -9z"/>
<path d="M1548 1489 c-33 -18 -21 -39 21 -39 38 0 59 19 45 41 -7 12 -45 11
-66 -2z"/>
<path d="M297 1483 c-4 -3 -7 -10 -7 -14 0 -9 39 1 46 12 6 10 -29 12 -39 2z"/>
<path d="M2155 1480 c3 -5 13 -10 21 -10 8 0 14 -4 14 -10 0 -5 7 -10 15 -10
20 0 19 10 -2 26 -21 16 -57 19 -48 4z"/>
<path d="M7975 1470 c3 -5 -12 -12 -34 -16 -35 -6 -39 -9 -32 -28 9 -23 45
-46 74 -46 14 0 17 9 17 44 0 30 -5 46 -16 50 -8 3 -12 2 -9 -4z"/>
<path d="M870 1450 c-20 -15 -23 -21 -12 -32 15 -15 37 -4 60 30 13 20 13 22
-4 22 -11 0 -30 -9 -44 -20z"/>
<path d="M1257 1463 c-4 -3 3 -12 16 -18 24 -13 62 -1 52 16 -7 10 -58 12 -68
2z"/>
<path d="M412 1448 c-13 -13 12 -37 40 -38 18 0 42 33 31 44 -11 10 -58 7 -71
-6z"/>
<path d="M710 1445 c-10 -12 -8 -16 15 -25 39 -15 63 -12 74 9 9 15 7 20 -12
25 -37 10 -64 7 -77 -9z"/>
<path d="M1403 1453 c-13 -2 -23 -9 -23 -14 0 -15 73 -6 78 9 4 12 -11 13 -55
5z"/>
<path d="M2266 1441 c-23 -9 -13 -16 34 -25 38 -6 71 6 50 19 -18 11 -63 15
-84 6z"/>
<path d="M145 1432 c-6 -4 -11 -20 -12 -35 -1 -38 -5 -40 -50 -28 -59 17 -83
14 -83 -9 0 -23 58 -51 89 -43 14 3 23 0 27 -11 8 -20 70 -22 77 -2 4 11 17
13 49 9 24 -3 47 -9 53 -14 5 -5 14 -9 20 -9 5 0 4 4 -4 9 -11 7 -9 11 10 21
33 17 32 16 19 39 -10 20 -13 20 -39 6 -16 -8 -36 -22 -45 -30 -9 -9 -16 -12
-16 -6 0 6 -11 11 -24 11 -13 0 -30 7 -37 16 -11 14 -10 19 10 35 13 11 30 19
38 19 13 0 13 3 3 15 -13 16 -67 20 -85 7z"/>
<path d="M268 1421 c-15 -17 -15 -20 -1 -25 18 -7 65 14 71 32 6 20 -52 14
-70 -7z"/>
<path d="M560 1420 c-23 -18 -24 -20 -4 -20 20 0 44 17 44 32 0 13 -13 9 -40
-12z"/>
<path d="M1073 1433 c-19 -7 -15 -33 5 -33 33 0 62 12 62 26 0 14 -41 18 -67
7z"/>
<path d="M1218 1423 c-10 -2 -18 -11 -18 -18 0 -15 53 -30 70 -20 12 8 13 35
1 35 -5 0 -15 2 -23 4 -7 2 -21 2 -30 -1z"/>
<path d="M6260 1420 c0 -25 22 -50 43 -50 12 0 18 4 12 8 -5 4 -15 16 -21 26
-12 23 -34 33 -34 16z"/>
<path d="M960 1402 c-12 -10 -21 -26 -19 -36 4 -16 7 -15 32 8 43 40 32 65
-13 28z"/>
<path d="M7662 1395 c2 -20 10 -27 37 -35 23 -6 39 -6 45 0 6 6 21 10 36 11
l25 0 -25 12 c-14 6 -29 17 -33 24 -4 7 -26 13 -47 13 -36 0 -40 -2 -38 -25z"/>
<path d="M1493 1394 c-4 -10 1 -22 11 -29 19 -15 12 -41 -12 -43 -41 -5 -72
-1 -106 13 -32 14 -40 14 -72 0 -40 -16 -38 -27 6 -45 28 -12 29 -14 13 -26
-10 -7 -26 -14 -35 -14 -9 0 -24 -7 -32 -16 -9 -8 -20 -13 -26 -9 -5 3 -7 0
-4 -9 3 -8 12 -17 20 -20 8 -3 14 -16 14 -30 0 -29 -30 -37 -92 -26 -41 8 -98
-4 -98 -20 0 -5 -3 -15 -6 -24 -8 -21 34 -22 62 -1 10 8 26 14 34 14 21 0 66
-41 72 -67 5 -18 2 -22 -15 -21 -50 4 -64 -1 -62 -22 2 -26 31 -49 61 -49 12
0 37 -7 57 -15 41 -17 54 -56 26 -73 -19 -12 -34 -6 -89 30 -24 16 -73 18 -87
4 -11 -11 -13 -45 -3 -51 5 -3 35 -10 67 -15 70 -12 88 -26 74 -63 -13 -32
-34 -34 -80 -6 -47 28 -105 23 -109 -10 -5 -31 12 -41 69 -41 43 0 89 -25 89
-50 0 -4 2 -15 6 -23 3 -10 -4 -16 -25 -20 -39 -8 -52 -45 -22 -65 11 -8 21
-25 21 -38 0 -30 7 -30 29 -3 l17 22 52 -24 c29 -13 52 -29 52 -36 0 -8 17 -4
46 12 29 15 64 25 89 25 47 0 75 22 75 58 0 32 -35 28 -72 -8 -16 -16 -35 -30
-41 -30 -12 0 -34 28 -49 60 -5 12 -7 12 -7 -2 -1 -10 -4 -19 -8 -19 -60 -10
-117 2 -127 27 -3 8 2 24 12 35 18 19 19 19 74 0 l56 -19 48 23 c27 13 41 24
32 24 -9 1 -18 9 -20 18 -2 14 -14 16 -63 14 -77 -3 -105 14 -87 53 11 25 15
26 49 19 52 -11 111 -7 129 8 16 13 15 55 -2 52 -116 -21 -155 -9 -133 41 13
28 15 28 74 22 68 -7 105 9 105 46 0 18 -4 20 -32 13 -90 -20 -119 -12 -100
29 13 28 69 49 90 33 18 -14 72 31 72 61 0 16 -37 8 -59 -13 -21 -20 -71 1
-71 30 0 24 17 35 51 35 11 0 18 4 15 9 -3 5 2 12 12 16 14 6 13 9 -11 22 -19
9 -27 20 -23 30 3 8 6 18 6 23 0 5 15 14 34 21 36 13 41 26 16 45 -19 16 2 64
28 64 10 0 27 6 37 14 18 13 18 14 -3 20 -12 4 -22 12 -22 17 0 5 -20 9 -45 9
-33 0 -47 -5 -52 -16z m-67 -130 c27 -13 33 -21 31 -43 -2 -26 -3 -27 -42 -20
-22 5 -43 8 -47 9 -10 0 -10 32 -2 54 8 20 18 20 60 0z m-17 -128 c13 -14 13
-18 -4 -36 -23 -25 -61 -20 -88 12 -14 16 -15 24 -5 35 15 18 74 11 97 -11z
m-54 -107 c19 -19 8 -59 -16 -59 -11 0 -29 6 -42 13 -12 6 -23 13 -25 14 -2 1
-5 12 -6 26 -3 24 0 25 36 22 22 -1 46 -9 53 -16z"/>
<path d="M1360 1390 c0 -5 13 -10 29 -10 17 0 33 5 36 10 4 6 -8 10 -29 10
-20 0 -36 -4 -36 -10z"/>
<path d="M1690 1375 c-7 -14 -10 -28 -7 -32 9 -8 47 27 47 44 0 22 -26 15 -40
-12z"/>
<path d="M4714 1388 c-25 -11 -48 -54 -34 -63 5 -3 11 -1 15 5 10 16 35 11 36
-7 1 -10 4 -4 9 12 4 17 9 36 11 44 5 18 -11 22 -37 9z"/>
<path d="M667 1374 c-4 -4 -7 -16 -7 -26 0 -18 4 -19 75 -23 17 -1 46 -5 65
-9 28 -6 41 -3 60 12 14 11 22 23 18 27 -10 10 -89 -5 -82 -16 3 -5 -2 -9 -10
-9 -8 0 -18 9 -21 20 -3 11 -12 20 -19 20 -8 0 -26 3 -42 6 -16 3 -32 2 -37
-2z"/>
<path d="M2400 1370 c0 -5 8 -6 18 -3 15 6 15 5 3 -10 -11 -14 -11 -18 4 -23
9 -4 28 -1 41 7 24 12 24 14 8 26 -21 15 -74 17 -74 3z"/>
<path d="M569 1343 c-13 -16 -12 -17 4 -4 9 7 17 15 17 17 0 8 -8 3 -21 -13z"/>
<path d="M1036 1334 c-18 -17 -21 -44 -7 -44 28 0 61 21 61 40 0 24 -31 27
-54 4z"/>
<path d="M1160 1330 c0 -17 7 -20 39 -20 37 0 68 19 54 33 -3 4 -26 7 -50 7
-36 0 -43 -3 -43 -20z"/>
<path d="M7968 1332 c-34 -4 -35 -18 -4 -57 21 -25 26 -27 31 -13 3 9 5 29 3
45 -3 24 -7 28 -30 25z"/>
<path d="M393 1318 c-13 -6 -23 -14 -23 -18 0 -16 28 -18 48 -5 10 8 23 11 27
7 4 -4 6 0 3 8 -6 19 -27 22 -55 8z"/>
<path d="M4535 1310 c4 -6 11 -8 16 -5 14 9 11 15 -7 15 -8 0 -12 -5 -9 -10z"/>
<path d="M6264 1294 c9 -38 27 -56 45 -45 17 11 0 45 -31 62 -19 10 -20 9 -14
-17z"/>
<path d="M0 1301 c0 -6 5 -13 11 -17 8 -4 8 -9 0 -17 -6 -6 -11 -20 -11 -31 0
-18 1 -18 18 -3 24 22 29 22 69 -9 l33 -25 42 23 c22 13 39 28 37 33 -2 6 -26
10 -54 11 -32 1 -62 9 -85 22 -37 23 -60 28 -60 13z"/>
<path d="M1604 1285 c-9 -14 -13 -29 -9 -33 7 -7 45 34 45 49 0 18 -20 9 -36
-16z"/>
<path d="M7542 1288 c8 -12 25 -24 37 -26 18 -3 20 0 12 20 -5 15 -18 24 -36
26 -28 4 -28 3 -13 -20z"/>
<path d="M7733 1302 c-37 -4 -46 -20 -29 -53 10 -20 18 -23 46 -21 19 2 42 10
50 17 8 7 22 15 30 18 11 4 9 7 -7 12 -13 4 -23 11 -23 15 0 11 -29 16 -67 12z"/>
<path d="M933 1287 c-13 -5 -23 -16 -23 -24 0 -17 11 -17 34 0 26 19 17 37
-11 24z"/>
<path d="M621 1281 c-36 -23 15 -51 95 -51 18 0 36 -4 39 -10 11 -18 73 -12
85 9 5 11 10 22 10 25 0 12 -68 5 -79 -8 -14 -17 -50 -9 -71 15 -18 22 -60 32
-79 20z"/>
<path d="M7487 1284 c-13 -13 -7 -24 14 -24 11 0 19 5 17 12 -5 14 -22 21 -31
12z"/>
<path d="M249 1260 c-14 -11 -18 -19 -11 -20 19 0 52 19 52 30 0 16 -16 12
-41 -10z"/>
<path d="M1672 1260 c-12 -12 -22 -28 -22 -37 0 -14 3 -14 22 -1 21 14 44 58
30 58 -5 0 -18 -9 -30 -20z"/>
<path d="M2590 1268 c0 -9 7 -24 16 -32 30 -31 33 -13 4 24 -15 19 -20 21 -20
8z"/>
<path d="M4620 1260 c0 -5 5 -10 10 -10 6 0 10 5 10 10 0 6 -4 10 -10 10 -5 0
-10 -4 -10 -10z"/>
<path d="M1130 1240 c-27 -27 -25 -40 8 -40 51 0 72 11 72 36 0 20 -5 24 -30
24 -17 0 -39 -9 -50 -20z"/>
<path d="M286 1225 c-10 -7 -15 -18 -11 -24 11 -19 51 -12 75 14 l23 25 -34 0
c-19 0 -42 -7 -53 -15z"/>
<path d="M4685 1219 c-11 -17 0 -20 21 -4 17 13 17 14 2 15 -9 0 -20 -5 -23
-11z"/>
<path d="M388 1207 c-39 -15 -44 -37 -8 -32 37 4 50 12 50 31 0 16 -4 16 -42
1z"/>
<path d="M1002 1208 c-13 -13 -16 -48 -4 -48 16 0 52 32 52 46 0 17 -31 19
-48 2z"/>
<path d="M7980 1203 c0 -5 5 -15 10 -23 8 -12 10 -11 10 8 0 12 -4 22 -10 22
-5 0 -10 -3 -10 -7z"/>
<path d="M572 1188 c-30 -30 -7 -49 72 -61 30 -5 36 -3 28 5 -7 7 -12 20 -12
30 0 10 -6 20 -12 22 -41 13 -66 14 -76 4z"/>
<path d="M1576 1179 c-25 -19 -35 -49 -18 -49 11 0 37 30 45 53 8 22 5 21 -27
-4z"/>
<path d="M6263 1184 c-6 -17 35 -67 48 -58 15 9 10 40 -9 57 -23 21 -31 21
-39 1z"/>
<path d="M0 1165 c0 -28 25 -34 62 -14 20 11 19 12 -18 25 -21 8 -40 14 -41
14 -2 0 -3 -11 -3 -25z"/>
<path d="M894 1175 c-28 -12 -51 -41 -40 -52 3 -3 18 -2 35 2 22 5 33 14 37
31 8 33 5 35 -32 19z"/>
<path d="M7765 1178 c-11 -6 -23 -16 -27 -21 -9 -14 -50 -17 -65 -5 -6 5 -25
13 -42 18 -29 8 -31 7 -31 -19 0 -20 7 -31 25 -39 38 -17 58 -15 51 4 -5 14
-4 15 8 5 7 -6 41 -12 76 -12 52 -1 64 2 76 20 8 12 22 21 30 21 9 0 14 7 12
17 -4 21 -82 28 -113 11z"/>
<path d="M465 1159 c-11 -16 -1 -19 13 -3 7 8 8 14 3 14 -5 0 -13 -5 -16 -11z"/>
<path d="M1738 1145 c-4 -17 -1 -25 8 -25 8 0 14 9 14 19 0 30 -17 34 -22 6z"/>
<path d="M7930 1160 c0 -5 5 -10 10 -10 6 0 10 5 10 10 0 6 -4 10 -10 10 -5 0
-10 -4 -10 -10z"/>
<path d="M716 1144 c-33 -18 -26 -30 25 -39 26 -5 40 -2 51 9 9 8 18 12 22 9
3 -4 6 -4 6 0 0 3 -7 13 -16 21 -19 20 -51 20 -88 0z"/>
<path d="M5900 1154 c0 -5 7 -18 15 -28 12 -16 15 -17 15 -4 0 8 -7 21 -15 28
-8 7 -15 9 -15 4z"/>
<path d="M113 1138 c-37 -18 -29 -40 13 -36 27 2 39 9 45 26 7 19 5 22 -14 21
-12 0 -32 -5 -44 -11z"/>
<path d="M1658 1142 c-17 -3 -36 -47 -26 -58 11 -10 39 10 44 33 7 28 5 31
-18 25z"/>
<path d="M4572 1128 c-14 -14 -16 -38 -3 -38 12 0 41 29 41 41 0 13 -24 11
-38 -3z"/>
<path d="M1780 1120 c0 -5 5 -10 10 -10 6 0 10 5 10 10 0 6 -4 10 -10 10 -5 0
-10 -4 -10 -10z"/>
<path d="M4389 1113 c-13 -15 -12 -15 9 -4 23 12 28 21 13 21 -5 0 -15 -7 -22
-17z"/>
<path d="M332 1105 c-40 -17 -44 -40 -4 -30 31 7 58 30 45 38 -4 3 -23 -1 -41
-8z"/>
<path d="M0 1100 c0 -5 5 -10 10 -10 6 0 10 5 10 10 0 6 -4 10 -10 10 -5 0
-10 -4 -10 -10z"/>
<path d="M4486 1095 c-11 -8 -16 -18 -13 -22 4 -3 7 -3 7 2 0 4 6 2 14 -4 11
-9 18 -8 30 4 9 9 16 21 16 26 0 14 -33 10 -54 -6z"/>
<path d="M509 1081 l-24 -20 37 -15 c47 -20 64 -20 72 0 10 26 7 32 -25 43
-39 14 -33 14 -60 -8z"/>
<path d="M970 1073 c-23 -30 -14 -41 19 -23 21 11 30 50 12 50 -5 0 -19 -12
-31 -27z"/>
<path d="M1800 1091 c0 -17 18 -21 24 -6 3 9 0 15 -9 15 -8 0 -15 -4 -15 -9z"/>
<path d="M200 1075 c-10 -12 -10 -15 3 -15 8 0 20 7 27 15 10 12 10 15 -3 15
-8 0 -20 -7 -27 -15z"/>
<path d="M7815 1067 c-10 -7 -27 -21 -36 -32 -13 -15 -27 -19 -55 -17 -22 2
-43 8 -48 13 -13 12 -43 12 -50 0 -3 -5 -1 -22 5 -39 8 -23 19 -32 50 -40 21
-5 39 -6 39 -1 0 11 53 33 98 42 35 7 105 57 80 57 -10 0 -9 3 2 10 8 5 13 10
10 11 -43 7 -79 6 -95 -4z"/>
<path d="M852 1063 c-29 -6 -50 -42 -31 -54 17 -11 40 -11 55 -1 16 10 34 48
27 56 -7 6 -13 6 -51 -1z"/>
<path d="M657 1040 c-10 -12 -15 -25 -12 -30 7 -11 65 -13 89 -4 24 9 19 41
-6 48 -38 10 -53 7 -71 -14z"/>
<path d="M1730 1040 c-29 -29 -25 -56 12 -74 17 -9 33 -16 35 -16 5 0 3 63 -3
88 -8 27 -18 28 -44 2z"/>
<path d="M4753 1005 c-23 -65 -36 -125 -27 -125 12 0 49 55 55 81 3 15 3 45 0
66 l-7 38 -21 -60z"/>
<path d="M29 1030 l-24 -19 26 -1 c15 0 37 9 50 20 l24 19 -26 1 c-15 0 -37
-9 -50 -20z"/>
<path d="M2789 1028 c12 -32 37 -46 53 -29 11 11 11 14 0 18 -7 3 -19 11 -26
19 -22 22 -37 17 -27 -8z"/>
<path d="M253 996 c-15 -11 -21 -22 -15 -28 13 -13 82 17 82 36 0 20 -37 16
-67 -8z"/>
<path d="M1055 994 c-14 -15 -22 -30 -19 -35 9 -15 66 15 75 39 12 32 -25 30
-56 -4z"/>
<path d="M145 1002 c-24 -5 -45 -21 -45 -33 0 -18 59 -9 70 10 11 22 4 29 -25
23z"/>
<path d="M1618 993 c-23 -28 -30 -53 -13 -53 20 0 57 38 53 53 -7 18 -24 18
-40 0z"/>
<path d="M4270 990 c-13 -9 -12 -12 4 -25 21 -16 31 -13 46 16 9 16 7 19 -12
19 -13 0 -30 -5 -38 -10z"/>
<path d="M455 969 c-9 -26 -8 -27 41 -35 36 -5 42 -4 47 15 10 40 -76 60 -88
20z"/>
<path d="M4517 970 c-11 -16 -13 -26 -6 -29 16 -5 31 14 27 35 -3 17 -5 16
-21 -6z"/>
<path d="M932 957 c-39 -41 -20 -64 26 -31 24 17 30 54 9 54 -8 0 -23 -10 -35
-23z"/>
<path d="M4432 960 c-7 -11 -9 -20 -4 -20 4 0 13 9 20 20 7 11 9 20 4 20 -4 0
-13 -9 -20 -20z"/>
<path d="M0 955 c0 -8 4 -15 9 -15 5 0 11 7 15 15 3 9 0 15 -9 15 -8 0 -15 -7
-15 -15z"/>
<path d="M345 959 c-12 -19 5 -23 22 -6 16 16 16 17 1 17 -9 0 -20 -5 -23 -11z"/>
<path d="M7838 943 c-30 -37 -65 -51 -109 -45 -47 5 -76 -11 -76 -42 0 -23 24
-43 57 -47 22 -2 60 12 60 22 0 13 80 51 96 45 8 -3 14 -2 14 3 0 5 8 12 18
15 9 3 27 12 40 20 l23 14 -29 21 c-40 28 -66 27 -94 -6z"/>
<path d="M599 934 c-11 -14 -10 -18 6 -30 37 -27 85 -11 85 28 0 14 -8 18 -39
18 -23 0 -44 -6 -52 -16z"/>
<path d="M763 926 c-25 -28 -14 -46 29 -46 29 0 65 40 53 60 -12 19 -61 11
-82 -14z"/>
<path d="M6295 918 c9 -39 5 -34 32 -42 31 -10 36 33 6 57 -33 27 -46 22 -38
-15z"/>
<path d="M1760 934 c0 -6 -13 -14 -30 -17 -21 -5 -33 -16 -43 -39 -16 -38 -7
-49 40 -46 39 2 53 16 53 52 0 28 -19 77 -20 50z"/>
<path d="M7675 930 c3 -5 8 -10 11 -10 2 0 4 5 4 10 0 6 -5 10 -11 10 -5 0 -7
-4 -4 -10z"/>
<path d="M190 889 c-7 -11 -9 -23 -6 -27 8 -8 54 18 60 34 9 23 -42 17 -54 -7z"/>
<path d="M7555 889 c-8 -25 18 -48 58 -49 26 0 26 1 10 19 -10 11 -24 27 -31
35 -17 22 -29 20 -37 -5z"/>
<path d="M48 886 c-27 -20 -22 -36 11 -36 42 0 61 10 61 31 0 23 -45 26 -72 5z"/>
<path d="M2880 890 c-13 -9 -13 -11 -1 -19 9 -6 22 -6 31 -1 11 6 21 5 28 -2
7 -7 12 -9 12 -4 0 12 -27 36 -42 36 -7 0 -20 -5 -28 -10z"/>
<path d="M396 865 c-16 -24 -16 -26 1 -31 10 -3 28 -10 40 -14 16 -7 27 -5 38
6 23 23 19 34 -20 50 -43 18 -40 18 -59 -11z"/>
<path d="M270 855 c-13 -14 -21 -27 -19 -29 7 -7 69 34 69 45 0 17 -27 9 -50
-16z"/>
<path d="M1013 865 c-16 -17 -17 -35 -2 -35 20 0 49 21 49 35 0 19 -31 19 -47
0z"/>
<path d="M1592 853 c-34 -33 -41 -53 -18 -53 27 0 58 35 54 60 l-3 25 -33 -32z"/>
<path d="M4342 860 c-12 -10 -28 -21 -35 -23 -8 -3 -6 -10 8 -21 33 -25 52
-20 58 17 6 42 -3 50 -31 27z"/>
<path d="M4760 849 c-7 -11 -18 -18 -25 -15 -8 3 -17 -7 -24 -26 -16 -44 -14
-53 7 -35 10 10 28 17 39 17 23 0 33 18 33 56 0 29 -15 31 -30 3z"/>
<path d="M4448 848 c-36 -30 -26 -70 21 -81 27 -7 80 11 66 21 -6 4 -12 16
-13 27 -2 11 -7 23 -10 26 -16 15 -49 18 -64 7z"/>
<path d="M7920 850 c-8 -5 -23 -11 -33 -14 -11 -4 -21 -14 -23 -24 -6 -21 -48
-42 -86 -42 -26 0 -28 2 -18 20 8 14 8 20 0 20 -6 0 -13 -13 -16 -29 -8 -41
-83 -64 -114 -36 -9 8 -27 16 -41 17 -41 5 -38 -36 6 -78 20 -19 31 -34 25
-34 -7 0 -10 -8 -7 -19 3 -13 -1 -21 -14 -24 -30 -8 -23 -44 16 -84 46 -48 47
-80 1 -88 -27 -6 -38 -2 -59 19 -37 37 -50 33 -44 -11 8 -65 16 -76 51 -70 17
3 48 -1 68 -8 21 -7 39 -10 42 -8 2 2 13 -9 25 -26 l22 -30 -28 -15 c-32 -16
-73 -15 -120 5 -18 7 -36 10 -40 6 -14 -14 -5 -79 14 -98 17 -17 22 -17 84 -2
63 15 67 15 93 -3 18 -13 25 -27 23 -43 -3 -33 -57 -48 -104 -31 -18 6 -37 8
-43 5 -6 -3 -13 1 -16 10 -6 14 -8 14 -20 -2 -7 -10 -14 -31 -14 -46 0 -16 -4
-26 -10 -22 -5 3 -10 -1 -10 -9 0 -10 9 -16 24 -16 14 0 28 -4 31 -10 3 -5 19
-10 36 -10 16 0 29 -4 29 -10 0 -5 5 -10 11 -10 5 0 7 5 4 11 -11 18 28 38 73
39 32 0 44 -4 49 -17 4 -10 11 -21 17 -25 17 -12 106 -9 106 3 0 5 8 9 18 8 9
-1 29 1 45 5 25 8 27 12 27 57 0 40 -3 49 -18 49 -30 0 -58 -27 -71 -70 -14
-47 -40 -52 -54 -10 -13 36 19 109 45 102 10 -2 18 0 18 6 0 13 46 83 63 95 8
6 6 7 -6 3 -10 -3 -26 3 -37 14 -29 29 -36 25 -50 -27 -21 -78 -65 -109 -90
-64 -18 34 25 99 71 109 18 4 48 43 49 63 0 9 11 22 25 29 14 7 25 17 25 21 0
5 7 6 15 3 11 -5 15 1 15 25 0 32 -13 41 -27 19 -11 -18 -49 -38 -71 -38 -20
0 -52 -29 -52 -48 0 -20 -43 -52 -72 -52 -20 0 -26 4 -22 15 5 11 1 14 -12 9
-12 -3 -15 -3 -8 3 7 4 13 16 15 27 2 10 26 30 52 44 27 14 62 44 80 68 19 25
40 43 52 44 51 1 65 11 65 47 0 33 -2 35 -27 28 -28 -7 -55 -34 -47 -47 3 -4
-1 -5 -9 -2 -8 3 -18 1 -22 -5 -8 -14 -65 -14 -65 -1 0 6 5 10 10 10 6 0 10
12 10 28 1 26 34 61 63 66 7 1 29 8 50 15 33 11 38 17 35 39 -3 24 -7 27 -37
24 -21 -1 -48 -15 -74 -37 -63 -54 -108 -43 -76 18 15 26 50 56 67 57 7 0 32
9 54 20 23 11 48 20 55 20 8 0 0 13 -17 30 -17 17 -32 30 -33 29 -1 0 -9 -4
-17 -9z m-172 -184 c43 -14 15 -71 -38 -77 -29 -2 -91 21 -72 28 6 3 12 15 12
27 0 13 2 25 4 27 7 6 68 3 94 -5z m60 -172 c-34 -58 -104 -68 -127 -18 -6 14
-11 26 -11 28 0 5 102 44 125 48 29 5 35 -21 13 -58z"/>
<path d="M875 824 c-14 -15 -22 -31 -19 -36 9 -13 56 0 72 19 34 46 -13 60
-53 17z"/>
<path d="M4190 835 c0 -15 25 -14 41 2 7 7 3 11 -15 11 -15 0 -26 -6 -26 -13z"/>
<path d="M550 820 c-14 -27 -7 -37 32 -43 46 -6 58 1 58 34 0 27 -3 29 -40 29
-29 0 -42 -5 -50 -20z"/>
<path d="M2855 825 c11 -8 26 -19 33 -26 21 -18 27 -1 7 21 -10 11 -28 20 -39
20 -21 -1 -21 -1 -1 -15z"/>
<path d="M735 823 c-22 -6 -35 -21 -35 -40 0 -19 65 -16 84 3 18 17 21 34 7
34 -5 0 -15 2 -23 4 -7 2 -22 1 -33 -1z"/>
<path d="M1801 814 c0 -11 3 -14 6 -6 3 7 2 16 -1 19 -3 4 -6 -2 -5 -13z"/>
<path d="M1700 810 c0 -5 5 -10 11 -10 5 0 7 5 4 10 -3 6 -8 10 -11 10 -2 0
-4 -4 -4 -10z"/>
<path d="M140 785 c-19 -23 -8 -26 20 -5 19 15 21 20 9 20 -9 0 -22 -7 -29
-15z"/>
<path d="M7398 777 c-16 -13 -28 -28 -28 -34 0 -20 -18 -24 -33 -8 -13 13 -16
12 -22 -3 -10 -24 -15 -92 -7 -92 15 1 39 26 46 48 10 32 42 45 103 43 29 -1
53 2 53 7 0 18 -46 62 -65 62 -11 -1 -32 -11 -47 -23z"/>
<path d="M23 782 c-17 -2 -23 -10 -23 -28 0 -31 34 -33 51 -3 13 25 3 36 -28
31z"/>
<path d="M220 753 c-39 -20 -39 -40 0 -35 31 4 43 15 38 36 -3 15 -6 14 -38
-1z"/>
<path d="M327 750 c-15 -18 -15 -20 2 -29 10 -6 37 -13 60 -17 39 -6 41 -6 41
20 0 44 -72 62 -103 26z"/>
<path d="M1685 762 c-19 -13 -34 -59 -23 -70 13 -13 68 4 86 26 23 30 15 52
-20 52 -18 0 -38 -4 -43 -8z"/>
<path d="M983 743 c-7 -2 -13 -11 -13 -18 0 -7 -6 -15 -12 -18 -7 -2 -10 -7
-7 -11 12 -13 59 13 59 34 0 20 -5 23 -27 13z"/>
<path d="M1557 715 c-27 -26 -37 -65 -16 -65 22 0 67 40 64 58 -2 9 -4 20 -4
25 -2 13 -16 7 -44 -18z"/>
<path d="M2950 730 c0 -5 7 -10 15 -10 8 0 15 -4 15 -8 0 -4 16 -15 35 -24 44
-20 35 -5 -16 27 -43 28 -49 30 -49 15z"/>
<path d="M486 694 c-8 -31 -10 -28 30 -41 33 -12 55 -2 67 30 5 13 0 20 -19
27 -46 18 -71 12 -78 -16z"/>
<path d="M824 712 c-6 -4 -14 -17 -18 -29 -7 -21 -4 -23 28 -23 36 0 66 21 66
46 0 15 -56 20 -76 6z"/>
<path d="M670 703 c-16 -7 -39 -33 -40 -45 0 -5 18 -8 40 -8 39 0 86 32 74 52
-6 9 -51 10 -74 1z"/>
<path d="M4262 669 c1 -30 36 -56 62 -46 14 6 16 17 16 65 0 4 -18 7 -39 7
-37 1 -39 -1 -39 -26z"/>
<path d="M4726 683 c-4 -8 -6 -28 -6 -44 0 -27 3 -30 28 -27 23 3 27 8 30 39
3 32 0 37 -22 41 -16 3 -27 0 -30 -9z"/>
<path d="M2961 681 c-16 -10 -8 -56 14 -81 7 -8 16 -26 20 -39 9 -28 25 -10
18 20 -3 10 0 19 6 19 21 0 11 36 -17 63 -18 17 -32 23 -41 18z"/>
<path d="M4100 680 c0 -5 9 -11 20 -11 11 -1 25 -2 32 -3 6 -1 12 5 14 12 1 7
0 8 -2 3 -4 -6 -14 -7 -30 0 -32 11 -34 11 -34 -1z"/>
<path d="M4406 665 c-12 -31 -6 -73 10 -79 10 -4 14 -14 11 -26 -7 -27 -5 -26
38 17 28 28 35 43 33 67 -3 29 -6 31 -44 34 -31 2 -43 -1 -48 -13z"/>
<path d="M6350 655 c0 -28 25 -44 42 -27 9 9 7 17 -7 32 -24 27 -35 25 -35 -5z"/>
<path d="M155 642 c-19 -4 -35 -19 -35 -34 0 -15 61 -8 67 8 7 20 -7 32 -32
26z"/>
<path d="M270 631 c-15 -29 -12 -41 11 -41 11 0 30 -5 41 -11 22 -12 32 -5 42
27 5 18 1 24 -25 33 -45 15 -57 14 -69 -8z"/>
<path d="M1035 624 c-9 -14 -14 -28 -11 -32 4 -3 38 -7 76 -8 65 -3 86 5 59
22 -8 4 -7 9 2 16 10 7 8 8 -7 3 -14 -4 -24 0 -28 10 -3 9 -18 15 -40 15 -25
0 -38 -6 -51 -26z"/>
<path d="M7480 625 c6 -8 9 -18 6 -24 -8 -12 21 -41 40 -41 8 0 14 9 14 21 0
35 -19 59 -47 59 -21 0 -23 -2 -13 -15z"/>
<path d="M1680 621 c-25 -7 -56 -54 -46 -70 11 -16 61 5 76 32 18 32 6 47 -30
38z"/>
<path d="M928 604 c-30 -15 -39 -54 -13 -54 17 0 55 39 55 57 0 16 -8 16 -42
-3z"/>
<path d="M13 593 c-14 -5 -18 -33 -5 -33 10 0 32 22 32 32 0 9 -8 9 -27 1z"/>
<path d="M424 565 c-8 -31 -7 -31 31 -39 37 -7 51 1 60 37 7 26 6 27 -39 27
-41 0 -46 -3 -52 -25z"/>
<path d="M610 583 c-16 -4 -41 -49 -32 -58 3 -3 20 -5 37 -5 56 0 92 64 37 66
-15 1 -34 -1 -42 -3z"/>
<path d="M762 578 c-7 -7 -12 -20 -12 -31 0 -15 7 -18 43 -15 38 3 42 6 45 31
3 25 0 27 -30 27 -19 0 -39 -5 -46 -12z"/>
<path d="M3090 576 c0 -13 57 -56 74 -56 4 0 -5 16 -20 35 -27 36 -54 46 -54
21z"/>
<path d="M4065 550 c4 -6 1 -18 -6 -26 -15 -18 -11 -22 28 -30 26 -5 32 -2 38
15 4 13 1 28 -5 36 -14 17 -65 21 -55 5z"/>
<path d="M4224 525 c-12 -38 -8 -50 26 -66 32 -16 36 -16 48 -1 6 9 12 28 12
43 0 24 -4 27 -41 31 -23 2 -43 -1 -45 -7z"/>
<path d="M49 498 l-23 -31 44 6 c23 3 47 11 51 19 16 25 9 38 -20 38 -22 0
-36 -8 -52 -32z"/>
<path d="M213 504 c-19 -30 -11 -40 39 -49 34 -6 39 -5 47 16 10 28 7 33 -37
47 -29 10 -34 9 -49 -14z"/>
<path d="M3001 511 c-11 -20 -4 -58 14 -81 7 -8 15 -23 18 -32 4 -10 11 -18
17 -18 7 0 8 6 1 19 -8 14 -6 22 8 35 9 9 24 16 32 17 8 0 6 4 -6 9 -19 8 -19
9 2 9 12 1 28 -8 37 -20 10 -15 20 -19 35 -14 27 8 26 17 -1 42 -24 21 -52 35
-78 39 -8 1 -27 4 -43 7 -19 4 -30 1 -36 -12z m74 -21 c3 -5 1 -10 -4 -10 -6
0 -11 5 -11 10 0 6 2 10 4 10 3 0 8 -4 11 -10z"/>
<path d="M4410 522 c0 -5 -11 -14 -25 -20 -21 -10 -25 -18 -25 -56 0 -25 4
-47 9 -50 6 -4 60 10 79 21 2 1 7 17 12 36 7 31 5 36 -17 46 -13 6 -21 16 -18
21 3 6 1 10 -4 10 -6 0 -11 -4 -11 -8z"/>
<path d="M1020 513 c-19 -7 -40 -33 -40 -50 0 -9 15 -13 45 -13 40 0 45 3 51
26 9 36 -15 52 -56 37z"/>
<path d="M3295 510 c-3 -5 -1 -10 4 -10 6 0 11 5 11 10 0 6 -2 10 -4 10 -3 0
-8 -4 -11 -10z"/>
<path d="M4720 470 c0 -38 2 -40 30 -40 34 0 45 17 36 55 -5 20 -13 25 -36 25
-28 0 -30 -2 -30 -40z"/>
<path d="M4631 467 c-9 -28 -10 -42 -2 -50 14 -14 23 11 19 55 l-3 33 -14 -38z"/>
<path d="M1105 480 c3 -5 8 -10 11 -10 2 0 4 5 4 10 0 6 -5 10 -11 10 -5 0 -7
-4 -4 -10z"/>
<path d="M1148 464 c-11 -23 -9 -28 12 -45 14 -10 38 -19 54 -19 16 0 49 -12
73 -26 35 -20 52 -24 81 -19 47 8 58 14 67 44 5 16 4 21 -4 17 -6 -4 -25 1
-42 10 -18 9 -50 16 -72 16 -26 -1 -56 8 -82 24 -53 31 -73 30 -87 -2z"/>
<path d="M3185 480 c-6 -10 7 -14 33 -11 6 1 12 -4 12 -11 0 -8 15 -20 33 -28
17 -7 35 -15 40 -18 4 -2 7 0 7 5 0 10 -94 73 -109 73 -5 0 -13 -4 -16 -10z"/>
<path d="M883 470 c-22 -9 -49 -47 -39 -57 9 -9 59 12 70 30 14 22 -3 37 -31
27z"/>
<path d="M1621 454 c-30 -39 -28 -58 6 -49 32 8 43 21 43 53 0 30 -24 28 -49
-4z"/>
<path d="M4553 468 c-12 -20 -34 -81 -38 -107 -2 -13 -8 -28 -13 -33 -7 -7 -5
-24 4 -50 8 -22 14 -50 14 -61 0 -30 14 -11 16 21 1 15 3 53 4 85 2 31 6 57
10 57 3 0 15 7 26 16 16 13 16 15 2 10 -25 -7 -30 7 -12 33 9 12 20 18 27 14
7 -4 6 0 -2 10 -16 20 -27 21 -38 5z"/>
<path d="M371 452 c-16 -30 -14 -37 15 -51 35 -16 61 -6 68 26 8 31 10 30 -36
38 -30 6 -38 4 -47 -13z"/>
<path d="M544 453 c-6 -5 -14 -21 -18 -36 l-7 -28 48 3 c46 3 48 4 48 33 0 26
-4 30 -30 33 -16 1 -35 -1 -41 -5z"/>
<path d="M717 446 c-12 -7 -23 -22 -25 -34 -3 -19 1 -22 31 -22 36 0 53 12 59
44 4 23 -30 29 -65 12z"/>
<path d="M1482 433 c-20 -8 -44 -61 -31 -68 12 -8 76 2 82 13 2 4 7 19 11 35
6 25 4 27 -21 26 -16 0 -34 -3 -41 -6z"/>
<path d="M3147 413 c-11 -10 -8 -20 6 -20 8 0 14 6 14 14 0 14 -10 17 -20 6z"/>
<path d="M4260 403 c-8 -13 -36 -30 -61 -38 -31 -11 -50 -24 -58 -41 -10 -23
-9 -26 8 -31 11 -3 22 -11 24 -17 6 -16 -15 -96 -25 -96 -10 0 -10 -71 0 -85
4 -5 14 -12 22 -14 17 -4 81 -3 86 2 2 1 -10 29 -26 61 -17 32 -30 69 -30 81
0 33 28 96 57 126 16 17 23 35 21 50 l-3 24 -15 -22z"/>
<path d="M0 360 c0 -35 3 -40 23 -40 31 0 47 18 47 52 0 25 -3 28 -35 28 -34
0 -35 -1 -35 -40z"/>
<path d="M4015 368 c-19 -39 -12 -52 35 -64 47 -13 55 -9 63 33 7 36 -4 49
-51 55 -28 4 -34 1 -47 -24z"/>
<path d="M142 365 c-13 -29 -11 -31 48 -40 44 -6 46 -6 48 21 2 32 -11 44 -54
44 -23 0 -34 -6 -42 -25z"/>
<path d="M3245 377 c-14 -11 -16 -21 -11 -50 7 -37 29 -53 60 -41 21 8 21 67
0 88 -19 19 -25 20 -49 3z"/>
<path d="M5007 383 c-2 -5 -3 -24 -3 -43 1 -31 4 -35 30 -38 32 -4 46 10 46
49 0 19 -6 28 -22 33 -31 8 -46 7 -51 -1z"/>
<path d="M3170 374 c0 -6 -11 -16 -23 -23 -23 -12 -23 -14 -9 -57 12 -37 19
-44 40 -44 24 0 25 2 19 50 -5 45 -26 102 -27 74z"/>
<path d="M946 348 c-25 -35 -20 -48 18 -48 36 0 52 13 58 45 5 31 -55 34 -76
3z"/>
<path d="M3043 342 c-3 -38 16 -92 32 -92 29 0 26 50 -5 98 -19 29 -25 28 -27
-6z"/>
<path d="M1096 332 c-10 -20 -12 -33 -6 -37 25 -16 72 -23 97 -15 17 5 21 9
10 9 -10 1 -15 6 -12 12 4 6 13 8 21 5 8 -3 14 -1 14 4 0 6 -5 10 -11 10 -7 0
-17 7 -23 15 -6 8 -25 18 -43 21 -28 5 -33 3 -47 -24z"/>
<path d="M3320 340 c0 -4 6 -13 14 -19 11 -9 15 -9 18 0 3 8 9 9 19 4 24 -15
40 -14 37 2 -2 11 -16 16 -45 18 -24 1 -43 -1 -43 -5z"/>
<path d="M7531 334 c0 -11 3 -14 6 -6 3 7 2 16 -1 19 -3 4 -6 -2 -5 -13z"/>
<path d="M302 319 c-17 -27 -3 -44 45 -54 29 -6 34 -4 43 21 13 33 5 43 -41
50 -28 4 -36 1 -47 -17z"/>
<path d="M816 319 c-33 -26 -34 -49 -2 -49 26 0 48 22 53 51 4 25 -18 24 -51
-2z"/>
<path d="M1330 329 c0 -5 5 -7 10 -4 6 3 10 8 10 11 0 2 -4 4 -10 4 -5 0 -10
-5 -10 -11z"/>
<path d="M4594 295 c-7 -40 -7 -42 21 -47 16 -2 21 3 23 31 3 31 -9 50 -30 51
-4 0 -10 -16 -14 -35z"/>
<path d="M7400 326 c0 -4 7 -22 14 -41 12 -28 21 -35 42 -35 24 0 26 2 20 32
-3 17 -8 33 -9 35 -7 7 -67 15 -67 9z"/>
<path d="M469 292 c-21 -24 -21 -26 -3 -39 37 -27 76 -14 93 30 9 23 8 27 -7
28 -9 0 -27 2 -39 3 -14 2 -31 -7 -44 -22z"/>
<path d="M675 313 c-29 -7 -45 -23 -45 -44 0 -15 7 -19 34 -19 36 0 52 13 58
45 3 20 -12 27 -47 18z"/>
<path d="M1645 309 c-11 -17 1 -21 15 -4 8 9 8 15 2 15 -6 0 -14 -5 -17 -11z"/>
<path d="M1262 301 c-5 -3 -12 -16 -16 -28 -10 -32 19 -43 123 -47 70 -3 96 0
127 15 22 10 33 18 27 19 -7 0 -13 9 -13 20 0 15 -7 20 -27 20 -38 0 -93 -22
-93 -37 0 -7 -4 -13 -10 -13 -5 0 -7 6 -5 13 8 19 -90 53 -113 38z"/>
<path d="M7992 290 c0 -14 2 -19 5 -12 2 6 2 18 0 25 -3 6 -5 1 -5 -13z"/>
<path d="M1550 280 c0 -5 5 -10 10 -10 6 0 10 5 10 10 0 6 -4 10 -10 10 -5 0
-10 -4 -10 -10z"/>
<path d="M87 218 c-13 -32 -13 -33 12 -38 39 -9 61 0 67 26 3 13 11 24 18 25
21 1 -29 18 -56 18 -22 1 -31 -6 -41 -31z"/>
<path d="M1 203 c0 -31 2 -34 9 -18 12 28 12 55 0 55 -5 0 -10 -17 -9 -37z"/>
<path d="M3475 226 c3 -11 1 -22 -5 -26 -6 -4 -5 -12 3 -25 15 -19 37 -13 37
9 0 8 -9 24 -21 37 -17 20 -20 21 -14 5z"/>
<path d="M899 200 c-34 -33 -31 -50 9 -50 38 0 51 11 58 48 6 28 4 32 -16 32
-12 0 -35 -13 -51 -30z"/>
<path d="M3370 180 c0 -42 3 -50 19 -50 10 0 22 7 25 16 3 9 13 14 21 10 22
-8 25 6 8 44 -13 29 -16 32 -22 17 -6 -17 -8 -17 -20 -3 -23 27 -31 18 -31
-34z"/>
<path d="M3989 222 c-22 -4 -30 -69 -11 -88 7 -8 21 -14 31 -14 9 0 22 -5 27
-10 8 -8 14 -7 21 2 15 18 24 71 15 83 -10 14 -64 31 -83 27z"/>
<path d="M1053 208 c-25 -33 -22 -46 14 -61 19 -7 47 -11 62 -9 14 3 21 7 15
9 -6 2 -9 16 -6 32 3 25 0 29 -28 35 -44 8 -46 8 -57 -6z"/>
<path d="M234 187 c-14 -30 -7 -42 29 -56 43 -17 54 -13 65 18 13 36 0 49 -50
57 -28 5 -35 2 -44 -19z"/>
<path d="M3268 186 c-30 -25 -39 -80 -15 -88 31 -11 62 8 75 46 11 34 10 40
-5 52 -24 18 -24 18 -55 -10z"/>
<path d="M5006 203 c-9 -10 -7 -71 3 -77 5 -3 12 6 16 21 3 16 11 31 17 34 7
4 3 11 -9 18 -11 5 -23 7 -27 4z"/>
<path d="M780 191 c-13 -4 -33 -21 -43 -39 l-19 -32 30 0 c29 0 62 21 62 40 0
5 3 15 6 24 7 17 3 18 -36 7z"/>
<path d="M409 156 c-28 -30 -23 -44 18 -52 31 -6 39 -3 55 16 10 12 18 31 18
41 0 26 -65 23 -91 -5z"/>
<path d="M588 168 c-9 -7 -19 -23 -22 -34 -6 -18 -2 -22 26 -26 18 -3 38 -4
44 -1 15 5 45 59 37 67 -11 11 -68 7 -85 -6z"/>
<path d="M3161 161 c-19 -19 -20 -24 -8 -54 9 -20 20 -32 33 -32 16 0 19 7 19
49 0 56 -14 67 -44 37z"/>
<path d="M1202 149 c-18 -29 -1 -46 54 -55 41 -6 42 -5 46 25 5 37 4 38 -48
46 -33 6 -41 3 -52 -16z"/>
<path d="M1402 153 c-22 -4 -57 -55 -45 -67 17 -17 139 6 155 29 4 5 8 17 8
24 0 12 -3 12 -12 3 -17 -17 -38 -15 -38 3 0 15 -19 17 -68 8z"/>
<path d="M4486 123 c-31 -38 -36 -70 -14 -84 22 -14 41 -10 34 7 -4 10 -1 14
6 12 14 -5 38 15 38 31 0 6 -9 20 -20 31 -11 11 -15 20 -10 20 6 0 10 5 10 10
0 19 -15 10 -44 -27z"/>
<path d="M6218 148 c-2 -7 -1 -29 2 -48 5 -35 5 -35 54 -32 27 1 51 4 53 6 2
1 0 21 -5 42 -8 38 -9 39 -54 42 -31 2 -47 -1 -50 -10z"/>
<path d="M7310 151 c-27 -5 -36 -11 -38 -29 -3 -16 -8 -22 -19 -18 -8 3 -21
-1 -30 -9 -12 -12 -18 -13 -29 -4 -18 15 -53 5 -88 -26 -26 -22 -38 -25 -96
-24 -75 2 -113 -7 -107 -24 2 -8 40 -13 113 -14 109 -2 171 10 187 34 4 7 17
13 27 13 10 0 21 4 24 9 3 5 30 9 60 9 29 -1 58 2 65 6 18 11 -7 89 -28 85 -3
-1 -22 -4 -41 -8z"/>
<path d="M4577 113 c-5 -47 -2 -53 28 -53 31 0 36 9 28 53 -4 30 -10 37 -28
37 -19 0 -24 -7 -28 -37z"/>
<path d="M330 130 c0 -5 5 -10 11 -10 5 0 7 5 4 10 -3 6 -8 10 -11 10 -2 0 -4
-4 -4 -10z"/>
<path d="M6412 96 c1 -10 8 -17 13 -17 15 1 12 24 -3 29 -9 3 -13 -2 -10 -12z"/>
<path d="M33 68 c-38 -43 -37 -48 6 -48 34 0 41 3 41 19 0 11 5 23 10 26 18
11 11 25 -13 25 -13 0 -33 -10 -44 -22z"/>
<path d="M3587 83 c-3 -5 0 -19 8 -29 15 -20 18 -11 6 20 -4 11 -10 15 -14 9z"/>
<path d="M862 70 c-18 -8 -42 -45 -42 -66 0 -2 15 -4 34 -4 25 0 39 7 50 22
34 48 14 70 -42 48z"/>
<path d="M994 55 c-24 -36 -12 -55 34 -55 43 0 62 14 62 46 0 14 -8 24 -22 28
-41 11 -57 6 -74 -19z"/>
<path d="M168 41 c-9 -16 -14 -32 -10 -35 3 -3 27 -6 53 -6 33 0 49 4 53 16 9
22 9 22 -24 39 -41 21 -53 19 -72 -14z"/>
<path d="M3550 40 c5 -18 12 -35 16 -39 10 -9 -6 53 -17 63 -5 6 -5 -4 1 -24z"/>
<path d="M3487 54 c-4 -4 -7 -18 -7 -31 0 -16 6 -23 20 -23 11 0 20 6 20 13 0
19 -24 49 -33 41z"/>
<path d="M708 37 c-45 -18 -44 -37 2 -37 36 0 40 3 40 25 0 27 -2 28 -42 12z"/>
<path d="M3365 30 c-8 -9 -15 -20 -15 -23 0 -9 73 -9 95 -1 14 6 13 9 -7 22
-30 21 -55 22 -73 2z"/>
<path d="M3946 26 l-16 -26 59 0 c48 0 59 3 55 14 -3 8 -16 17 -29 20 -13 3
-30 8 -38 11 -8 4 -21 -4 -31 -19z"/>
<path d="M1157 21 c-5 -19 -1 -21 49 -21 59 0 67 5 29 20 -59 22 -72 22 -78 1z"/>
<path d="M1524 30 c-46 -18 -36 -30 23 -29 32 0 52 3 46 6 -7 2 -13 11 -13 19
0 16 -24 17 -56 4z"/>
<path d="M340 15 c0 -11 12 -15 45 -15 33 0 45 4 45 15 0 11 -12 15 -45 15
-33 0 -45 -4 -45 -15z"/>
<path d="M520 15 c0 -13 9 -16 43 -13 23 2 42 8 42 13 0 6 -19 11 -42 13 -34
3 -43 0 -43 -13z"/>
<path d="M3270 10 c-12 -8 -11 -10 8 -10 12 0 22 5 22 10 0 13 -11 13 -30 0z"/>
<path d="M4504 8 c-3 -4 4 -8 15 -8 11 0 22 4 26 9 3 6 -4 9 -16 8 -11 -1 -23
-5 -25 -9z"/>
<path d="M1358 3 c12 -2 32 -2 45 0 12 2 2 4 -23 4 -25 0 -35 -2 -22 -4z"/>
</g>
</svg>
